{
  "source": "C:\\Users\\Peter\\Desktop\\stuff\\MIUN\\quantitative_research\\video_compression\\videos\\BVI-HD\\Toys_1920x1080_30fps.mp4",
  "output": "C:\\Users\\Peter\\Desktop\\stuff\\MIUN\\quantitative_research\\video_compression\\compressed_videos\\BVI-HD\\hevc\\12\\Toys_1920x1080_30fps_hevc.mp4",
  "codec": "hevc",
  "ok": "Input #0, mov,mp4,m4a,3gp,3g2,mj2, from 'C:\\Users\\Peter\\Desktop\\stuff\\MIUN\\quantitative_research\\video_compression\\videos\\BVI-HD\\Toys_1920x1080_30fps.mp4':\n  Metadata:\n    major_brand     : isom\n    minor_version   : 512\n    compatible_brands: isomiso2avc1mp41\n    encoder         : Lavf54.28.101\n  Duration: 00:00:05.00, start: 0.000000, bitrate: 270887 kb/s\n  Stream #0:0[0x1](und): Video: h264 (High 4:4:4 Predictive) (avc1 / 0x31637661), yuv420p(progressive), 1920x1080, 270883 kb/s, 30 fps, 30 tbr, 30 tbn (default)\n    Metadata:\n      handler_name    : VideoHandler\n      vendor_id       : [0][0][0][0]\n[out#0/mp4 @ 00000263bc50ab40] Codec AVOption b:a (set bitrate (in bits/s)) has not been used for any stream. The most likely reason is either wrong type (e.g. a video option with no video streams) or that it is a private option of some decoder which was not actually used for any stream.\nStream mapping:\n  Stream #0:0 -> #0:0 (h264 (native) -> hevc (libx265))\nPress [q] to stop, [?] for help\n[libx265 @ 00000263bd2875c0] Unknown option: \"aq-mode.\nx265 [info]: HEVC encoder version 4.1+190-8f11c33ac\nx265 [info]: build info [Windows][GCC 15.1.0][64 bit] 10bit\nx265 [info]: using cpu capabilities: MMX2 SSE2Fast LZCNT SSSE3 SSE4.2 AVX FMA3 BMI2 AVX2\nx265 [info]: Main 10 profile, Level-4 (Main tier)\nx265 [info]: Thread pool created using 12 threads\nx265 [info]: Slices                              : 1\nx265 [info]: frame threads / pool features       : 3 / wpp(17 rows)\nx265 [info]: Coding QT: max CU size, min CU size : 64 / 8\nx265 [info]: Residual QT: max TU size, max depth : 32 / 1 inter / 1 intra\nx265 [info]: ME / range / subpel / merge         : star / 57 / 3 / 3\nx265 [info]: Keyframe min / max / scenecut / bias  : 25 / 250 / 40 / 5.00 \nx265 [info]: Lookahead / bframes / badapt        : 25 / 4 / 2\nx265 [info]: b-pyramid / weightp / weightb       : 1 / 1 / 0\nx265 [info]: References / ref-limit  cu / depth  : 4 / on / on\nx265 [info]: AQ: mode / str / qg-size / cu-tree  : 2 / 1.0 / 32 / 1\nx265 [info]: Rate Control / qCompress            : ABR-12000 kbps / 0.60\nx265 [info]: VBV/HRD buffer / max-rate / init    : 12000 / 12000 / 0.750\nx265 [info]: tools: rect limit-modes rd=4 psy-rd=2.00 rdoq=2 psy-rdoq=1.00\nx265 [info]: tools: rskip mode=1 signhide tmvp strong-intra-smoothing lslices=4\nx265 [info]: tools: deblock sao dhdr10-info\nOutput #0, mp4, to 'C:\\Users\\Peter\\Desktop\\stuff\\MIUN\\quantitative_research\\video_compression\\compressed_videos\\BVI-HD\\hevc\\12\\Toys_1920x1080_30fps_hevc.mp4':\n  Metadata:\n    major_brand     : isom\n    minor_version   : 512\n    compatible_brands: isomiso2avc1mp41\n    encoder         : Lavf62.3.100\n  Stream #0:0(und): Video: hevc (hev1 / 0x31766568), yuv420p10le(tv, progressive), 1920x1080, q=2-31, 12000 kb/s, 30 fps, 15360 tbn (default)\n    Metadata:\n      encoder         : Lavc62.11.100 libx265\n      handler_name    : VideoHandler\n      vendor_id       : [0][0][0][0]\n    Side data:\n      cpb: bitrate max/min/avg: 12000000/0/12000000 buffer size: 12000000 vbv_delay: N/A\nframe=    0 fps=0.0 q=0.0 size=       0KiB time=N/A bitrate=N/A speed=N/A elapsed=0:00:01.82    \nframe=    0 fps=0.0 q=0.0 size=       0KiB time=N/A bitrate=N/A speed=N/A elapsed=0:00:02.54    \nframe=    0 fps=0.0 q=0.0 size=       0KiB time=N/A bitrate=N/A speed=N/A elapsed=0:00:03.23    \nframe=    0 fps=0.0 q=0.0 size=       0KiB time=N/A bitrate=N/A speed=N/A elapsed=0:00:03.80    \nframe=    0 fps=0.0 q=0.0 size=       0KiB time=N/A bitrate=N/A speed=N/A elapsed=0:00:04.37    \nframe=    0 fps=0.0 q=0.0 size=       0KiB time=N/A bitrate=N/A speed=N/A elapsed=0:00:05.00    \nframe=    0 fps=0.0 q=0.0 size=       0KiB time=N/A bitrate=N/A speed=N/A elapsed=0:00:05.55    \nframe=    0 fps=0.0 q=0.0 size=       0KiB time=N/A bitrate=N/A speed=N/A elapsed=0:00:06.07    \nframe=    0 fps=0.0 q=0.0 size=       0KiB time=N/A bitrate=N/A speed=N/A elapsed=0:00:06.61    \nframe=    0 fps=0.0 q=0.0 size=       0KiB time=N/A bitrate=N/A speed=N/A elapsed=0:00:07.18    \nframe=    0 fps=0.0 q=0.0 size=       0KiB time=N/A bitrate=N/A speed=N/A elapsed=0:00:07.70    \nframe=    0 fps=0.0 q=0.0 size=       0KiB time=N/A bitrate=N/A speed=N/A elapsed=0:00:08.24    \nframe=    0 fps=0.0 q=0.0 size=       0KiB time=N/A bitrate=N/A speed=N/A elapsed=0:00:08.75    \nframe=    0 fps=0.0 q=0.0 size=       0KiB time=N/A bitrate=N/A speed=N/A elapsed=0:00:09.29    \nframe=    0 fps=0.0 q=0.0 size=       0KiB time=N/A bitrate=N/A speed=N/A elapsed=0:00:09.82    \nframe=    0 fps=0.0 q=0.0 size=       0KiB time=N/A bitrate=N/A speed=N/A elapsed=0:00:10.35    \nframe=    0 fps=0.0 q=0.0 size=       0KiB time=N/A bitrate=N/A speed=N/A elapsed=0:00:10.91    \nframe=    0 fps=0.0 q=0.0 size=       0KiB time=N/A bitrate=N/A speed=N/A elapsed=0:00:11.48    \nframe=    0 fps=0.0 q=0.0 size=       0KiB time=N/A bitrate=N/A speed=N/A elapsed=0:00:12.05    \nframe=    0 fps=0.0 q=0.0 size=       0KiB time=N/A bitrate=N/A speed=N/A elapsed=0:00:12.60    \nframe=    0 fps=0.0 q=0.0 size=       0KiB time=N/A bitrate=N/A speed=N/A elapsed=0:00:13.15    \nframe=    0 fps=0.0 q=0.0 size=       0KiB time=N/A bitrate=N/A speed=N/A elapsed=0:00:13.70    \nframe=    0 fps=0.0 q=0.0 size=       0KiB time=N/A bitrate=N/A speed=N/A elapsed=0:00:14.27    \nframe=    0 fps=0.0 q=0.0 size=       0KiB time=N/A bitrate=N/A speed=N/A elapsed=0:00:14.83    \nframe=    0 fps=0.0 q=0.0 size=       0KiB time=N/A bitrate=N/A speed=N/A elapsed=0:00:15.40    \nframe=    0 fps=0.0 q=0.0 size=       0KiB time=N/A bitrate=N/A speed=N/A elapsed=0:00:15.92    \nframe=    0 fps=0.0 q=0.0 size=       0KiB time=N/A bitrate=N/A speed=N/A elapsed=0:00:16.47    \nframe=    0 fps=0.0 q=0.0 size=       0KiB time=N/A bitrate=N/A speed=N/A elapsed=0:00:17.04    \nframe=    0 fps=0.0 q=0.0 size=       0KiB time=N/A bitrate=N/A speed=N/A elapsed=0:00:17.55    \nframe=    0 fps=0.0 q=0.0 size=       0KiB time=N/A bitrate=N/A speed=N/A elapsed=0:00:18.11    \nframe=    0 fps=0.0 q=0.0 size=       0KiB time=N/A bitrate=N/A speed=N/A elapsed=0:00:18.65    \nframe=    0 fps=0.0 q=0.0 size=       0KiB time=N/A bitrate=N/A speed=N/A elapsed=0:00:19.21    \nframe=    0 fps=0.0 q=0.0 size=       0KiB time=N/A bitrate=N/A speed=N/A elapsed=0:00:19.75    \nframe=    0 fps=0.0 q=0.0 size=       0KiB time=N/A bitrate=N/A speed=N/A elapsed=0:00:20.35    \nframe=    0 fps=0.0 q=0.0 size=       0KiB time=N/A bitrate=N/A speed=N/A elapsed=0:00:20.92    \nframe=    0 fps=0.0 q=0.0 size=       0KiB time=N/A bitrate=N/A speed=N/A elapsed=0:00:21.47    \nframe=    0 fps=0.0 q=0.0 size=       0KiB time=N/A bitrate=N/A speed=N/A elapsed=0:00:22.12    \nframe=    0 fps=0.0 q=0.0 size=       0KiB time=N/A bitrate=N/A speed=N/A elapsed=0:00:22.71    \nframe=    0 fps=0.0 q=0.0 size=       0KiB time=N/A bitrate=N/A speed=N/A elapsed=0:00:23.29    \nframe=    0 fps=0.0 q=0.0 size=       0KiB time=N/A bitrate=N/A speed=N/A elapsed=0:00:23.81    \nframe=    0 fps=0.0 q=0.0 size=       0KiB time=N/A bitrate=N/A speed=N/A elapsed=0:00:24.37    \nframe=    0 fps=0.0 q=0.0 size=       0KiB time=N/A bitrate=N/A speed=N/A elapsed=0:00:24.94    \nframe=    0 fps=0.0 q=0.0 size=       0KiB time=N/A bitrate=N/A speed=N/A elapsed=0:00:25.45    \nframe=    0 fps=0.0 q=0.0 size=       0KiB time=N/A bitrate=N/A speed=N/A elapsed=0:00:26.02    \nframe=    0 fps=0.0 q=0.0 size=       0KiB time=N/A bitrate=N/A speed=N/A elapsed=0:00:26.55    \nframe=    0 fps=0.0 q=0.0 size=       0KiB time=N/A bitrate=N/A speed=N/A elapsed=0:00:27.12    \nframe=    0 fps=0.0 q=0.0 size=       0KiB time=N/A bitrate=N/A speed=N/A elapsed=0:00:27.67    \nframe=    0 fps=0.0 q=0.0 size=       0KiB time=N/A bitrate=N/A speed=N/A elapsed=0:00:28.23    \nframe=    0 fps=0.0 q=0.0 size=       0KiB time=N/A bitrate=N/A speed=N/A elapsed=0:00:28.79    \nframe=    0 fps=0.0 q=0.0 size=       0KiB time=N/A bitrate=N/A speed=N/A elapsed=0:00:29.34    \nframe=    0 fps=0.0 q=0.0 size=       0KiB time=N/A bitrate=N/A speed=N/A elapsed=0:00:29.87    \nframe=    0 fps=0.0 q=0.0 size=       0KiB time=N/A bitrate=N/A speed=N/A elapsed=0:00:30.41    \nframe=    0 fps=0.0 q=0.0 size=       0KiB time=N/A bitrate=N/A speed=N/A elapsed=0:00:30.96    \nframe=    0 fps=0.0 q=0.0 size=       0KiB time=N/A bitrate=N/A speed=N/A elapsed=0:00:31.49    \nframe=    0 fps=0.0 q=0.0 size=       0KiB time=N/A bitrate=N/A speed=N/A elapsed=0:00:32.03    \nframe=    0 fps=0.0 q=0.0 size=       0KiB time=N/A bitrate=N/A speed=N/A elapsed=0:00:32.58    \nframe=    1 fps=0.0 q=20.8 size=       0KiB time=-00:00:00.03 bitrate=N/A speed=N/A elapsed=0:00:33.13    \nframe=    1 fps=0.0 q=20.8 size=       0KiB time=-00:00:00.03 bitrate=N/A speed=N/A elapsed=0:00:33.65    \nframe=    1 fps=0.0 q=20.8 size=       0KiB time=-00:00:00.03 bitrate=N/A speed=N/A elapsed=0:00:34.18    \nframe=    2 fps=0.1 q=27.6 size=     256KiB time=00:00:00.00 bitrate=N/A speed=   0x elapsed=0:00:34.76    \nframe=    2 fps=0.1 q=27.6 size=     256KiB time=00:00:00.00 bitrate=N/A speed=   0x elapsed=0:00:35.30    \nframe=    2 fps=0.1 q=27.6 size=     256KiB time=00:00:00.00 bitrate=N/A speed=   0x elapsed=0:00:35.85    \nframe=    3 fps=0.1 q=30.4 size=     256KiB time=00:00:00.03 bitrate=62925.7kbits/s speed=0.000916x elapsed=0:00:36.37    \nframe=    3 fps=0.1 q=30.4 size=     256KiB time=00:00:00.03 bitrate=62925.7kbits/s speed=0.000903x elapsed=0:00:36.89    \nframe=    3 fps=0.1 q=30.4 size=     256KiB time=00:00:00.03 bitrate=62925.7kbits/s speed=0.000891x elapsed=0:00:37.42    \nframe=    3 fps=0.1 q=30.4 size=     256KiB time=00:00:00.03 bitrate=62925.7kbits/s speed=0.000878x elapsed=0:00:37.95    \nframe=    3 fps=0.1 q=30.4 size=     256KiB time=00:00:00.03 bitrate=62925.7kbits/s speed=0.000865x elapsed=0:00:38.52    \nframe=    3 fps=0.1 q=30.4 size=     256KiB time=00:00:00.03 bitrate=62925.7kbits/s speed=0.000853x elapsed=0:00:39.06    \nframe=    3 fps=0.1 q=30.4 size=     256KiB time=00:00:00.03 bitrate=62925.7kbits/s speed=0.000842x elapsed=0:00:39.59    \nframe=    3 fps=0.1 q=30.4 size=     256KiB time=00:00:00.03 bitrate=62925.7kbits/s speed=0.000831x elapsed=0:00:40.12    \nframe=    3 fps=0.1 q=30.4 size=     256KiB time=00:00:00.03 bitrate=62925.7kbits/s speed=0.000819x elapsed=0:00:40.69    \nframe=    3 fps=0.1 q=30.4 size=     256KiB time=00:00:00.03 bitrate=62925.7kbits/s speed=0.000808x elapsed=0:00:41.23    \nframe=    3 fps=0.1 q=30.4 size=     256KiB time=00:00:00.03 bitrate=62925.7kbits/s speed=0.000798x elapsed=0:00:41.76    \nframe=    3 fps=0.1 q=30.4 size=     256KiB time=00:00:00.03 bitrate=62925.7kbits/s speed=0.000788x elapsed=0:00:42.29    \nframe=    3 fps=0.1 q=30.4 size=     256KiB time=00:00:00.03 bitrate=62925.7kbits/s speed=0.000779x elapsed=0:00:42.81    \nframe=    4 fps=0.1 q=32.7 size=     256KiB time=00:00:00.06 bitrate=31462.4kbits/s speed=0.00154x elapsed=0:00:43.35    \nframe=    4 fps=0.1 q=32.7 size=     256KiB time=00:00:00.06 bitrate=31462.4kbits/s speed=0.00152x elapsed=0:00:43.91    \nframe=    4 fps=0.1 q=32.7 size=     256KiB time=00:00:00.06 bitrate=31462.4kbits/s speed=0.0015x elapsed=0:00:44.45    \nframe=    4 fps=0.1 q=32.7 size=     256KiB time=00:00:00.06 bitrate=31462.4kbits/s speed=0.00148x elapsed=0:00:44.98    \nframe=    4 fps=0.1 q=32.7 size=     256KiB time=00:00:00.06 bitrate=31462.4kbits/s speed=0.00146x elapsed=0:00:45.51    \nframe=    5 fps=0.1 q=31.8 size=     256KiB time=00:00:00.10 bitrate=20975.0kbits/s speed=0.00217x elapsed=0:00:46.07    \nframe=    5 fps=0.1 q=31.8 size=     256KiB time=00:00:00.10 bitrate=20975.0kbits/s speed=0.00214x elapsed=0:00:46.62    \nframe=    5 fps=0.1 q=31.8 size=     256KiB time=00:00:00.10 bitrate=20975.0kbits/s speed=0.00212x elapsed=0:00:47.17    \nframe=    5 fps=0.1 q=31.8 size=     256KiB time=00:00:00.10 bitrate=20975.0kbits/s speed=0.00209x elapsed=0:00:47.75    \nframe=    5 fps=0.1 q=31.8 size=     256KiB time=00:00:00.10 bitrate=20975.0kbits/s speed=0.00207x elapsed=0:00:48.37    \nframe=    5 fps=0.1 q=31.8 size=     256KiB time=00:00:00.10 bitrate=20975.0kbits/s speed=0.00204x elapsed=0:00:48.99    \nframe=    5 fps=0.1 q=31.8 size=     256KiB time=00:00:00.10 bitrate=20975.0kbits/s speed=0.00202x elapsed=0:00:49.55    \nframe=    5 fps=0.1 q=31.8 size=     256KiB time=00:00:00.10 bitrate=20975.0kbits/s speed=0.002x elapsed=0:00:50.09    \nframe=    5 fps=0.1 q=31.8 size=     256KiB time=00:00:00.10 bitrate=20975.0kbits/s speed=0.00198x elapsed=0:00:50.61    \nframe=    5 fps=0.1 q=31.8 size=     256KiB time=00:00:00.10 bitrate=20975.0kbits/s speed=0.00196x elapsed=0:00:51.14    \nframe=    5 fps=0.1 q=31.8 size=     256KiB time=00:00:00.10 bitrate=20975.0kbits/s speed=0.00194x elapsed=0:00:51.66    \nframe=    6 fps=0.1 q=25.3 size=     256KiB time=00:00:00.13 bitrate=15731.3kbits/s speed=0.00255x elapsed=0:00:52.21    \nframe=    6 fps=0.1 q=25.3 size=     256KiB time=00:00:00.13 bitrate=15731.3kbits/s speed=0.00253x elapsed=0:00:52.71    \nframe=    6 fps=0.1 q=25.3 size=     256KiB time=00:00:00.13 bitrate=15731.3kbits/s speed=0.0025x elapsed=0:00:53.25    \nframe=    7 fps=0.1 q=29.0 size=     256KiB time=00:00:00.16 bitrate=12585.0kbits/s speed=0.0031x elapsed=0:00:53.77    \nframe=    7 fps=0.1 q=29.0 size=     256KiB time=00:00:00.16 bitrate=12585.0kbits/s speed=0.00307x elapsed=0:00:54.29    \nframe=    7 fps=0.1 q=29.0 size=     256KiB time=00:00:00.16 bitrate=12585.0kbits/s speed=0.00304x elapsed=0:00:54.83    \nframe=    7 fps=0.1 q=29.0 size=     256KiB time=00:00:00.16 bitrate=12585.0kbits/s speed=0.00301x elapsed=0:00:55.39    \nframe=    7 fps=0.1 q=29.0 size=     256KiB time=00:00:00.16 bitrate=12585.0kbits/s speed=0.00298x elapsed=0:00:55.94    \nframe=    7 fps=0.1 q=29.0 size=     256KiB time=00:00:00.16 bitrate=12585.0kbits/s speed=0.00295x elapsed=0:00:56.47    \nframe=    7 fps=0.1 q=29.0 size=     256KiB time=00:00:00.16 bitrate=12585.0kbits/s speed=0.00292x elapsed=0:00:56.99    \nframe=    8 fps=0.1 q=30.9 size=     256KiB time=00:00:00.20 bitrate=10487.5kbits/s speed=0.00348x elapsed=0:00:57.53    \nframe=    8 fps=0.1 q=30.9 size=     256KiB time=00:00:00.20 bitrate=10487.5kbits/s speed=0.00344x elapsed=0:00:58.06    \nframe=    8 fps=0.1 q=30.9 size=     256KiB time=00:00:00.20 bitrate=10487.5kbits/s speed=0.00341x elapsed=0:00:58.61    \nframe=    8 fps=0.1 q=30.9 size=     256KiB time=00:00:00.20 bitrate=10487.5kbits/s speed=0.00338x elapsed=0:00:59.15    \nframe=    8 fps=0.1 q=30.9 size=     256KiB time=00:00:00.20 bitrate=10487.5kbits/s speed=0.00335x elapsed=0:00:59.68    \nframe=    8 fps=0.1 q=30.9 size=     256KiB time=00:00:00.20 bitrate=10487.5kbits/s speed=0.00332x elapsed=0:01:00.23    \nframe=    9 fps=0.1 q=30.7 size=     256KiB time=00:00:00.23 bitrate=8989.3kbits/s speed=0.00384x elapsed=0:01:00.76    \nframe=    9 fps=0.1 q=30.7 size=     256KiB time=00:00:00.23 bitrate=8989.3kbits/s speed=0.00381x elapsed=0:01:01.28    \nframe=    9 fps=0.1 q=30.7 size=     256KiB time=00:00:00.23 bitrate=8989.3kbits/s speed=0.00377x elapsed=0:01:01.81    \nframe=    9 fps=0.1 q=30.7 size=     256KiB time=00:00:00.23 bitrate=8989.3kbits/s speed=0.00374x elapsed=0:01:02.34    \nframe=    9 fps=0.1 q=30.7 size=     256KiB time=00:00:00.23 bitrate=8989.3kbits/s speed=0.00371x elapsed=0:01:02.88    \nframe=   10 fps=0.2 q=24.4 size=     256KiB time=00:00:00.26 bitrate=7865.6kbits/s speed=0.00421x elapsed=0:01:03.40    \nframe=   11 fps=0.2 q=28.1 size=     512KiB time=00:00:00.30 bitrate=13982.2kbits/s speed=0.00469x elapsed=0:01:03.93    \nframe=   11 fps=0.2 q=28.1 size=     512KiB time=00:00:00.30 bitrate=13982.2kbits/s speed=0.00465x elapsed=0:01:04.46    \nframe=   11 fps=0.2 q=28.1 size=     512KiB time=00:00:00.30 bitrate=13982.2kbits/s speed=0.00462x elapsed=0:01:04.98    \nframe=   11 fps=0.2 q=28.1 size=     512KiB time=00:00:00.30 bitrate=13982.2kbits/s speed=0.00458x elapsed=0:01:05.51    \nframe=   11 fps=0.2 q=28.1 size=     512KiB time=00:00:00.30 bitrate=13982.2kbits/s speed=0.00454x elapsed=0:01:06.03    \nframe=   11 fps=0.2 q=28.1 size=     512KiB time=00:00:00.30 bitrate=13982.2kbits/s speed=0.00451x elapsed=0:01:06.56    \nframe=   11 fps=0.2 q=28.1 size=     512KiB time=00:00:00.30 bitrate=13982.2kbits/s speed=0.00447x elapsed=0:01:07.07    \nframe=   11 fps=0.2 q=28.1 size=     512KiB time=00:00:00.30 bitrate=13982.2kbits/s speed=0.00444x elapsed=0:01:07.60    \nframe=   11 fps=0.2 q=28.1 size=     512KiB time=00:00:00.30 bitrate=13982.2kbits/s speed=0.0044x elapsed=0:01:08.13    \nframe=   12 fps=0.2 q=31.6 size=     512KiB time=00:00:00.33 bitrate=12584.0kbits/s speed=0.00485x elapsed=0:01:08.68    \nframe=   12 fps=0.2 q=31.6 size=     512KiB time=00:00:00.33 bitrate=12584.0kbits/s speed=0.00482x elapsed=0:01:09.20    \nframe=   12 fps=0.2 q=31.6 size=     512KiB time=00:00:00.33 bitrate=12584.0kbits/s speed=0.00478x elapsed=0:01:09.73    \nframe=   12 fps=0.2 q=31.6 size=     512KiB time=00:00:00.33 bitrate=12584.0kbits/s speed=0.00474x elapsed=0:01:10.27    \nframe=   12 fps=0.2 q=31.6 size=     512KiB time=00:00:00.33 bitrate=12584.0kbits/s speed=0.00471x elapsed=0:01:10.80    \nframe=   12 fps=0.2 q=31.6 size=     512KiB time=00:00:00.33 bitrate=12584.0kbits/s speed=0.00467x elapsed=0:01:11.33    \nframe=   13 fps=0.2 q=30.9 size=     512KiB time=00:00:00.36 bitrate=11440.0kbits/s speed=0.0051x elapsed=0:01:11.85    \nframe=   13 fps=0.2 q=30.9 size=     512KiB time=00:00:00.36 bitrate=11440.0kbits/s speed=0.00506x elapsed=0:01:12.40    \nframe=   13 fps=0.2 q=30.9 size=     512KiB time=00:00:00.36 bitrate=11440.0kbits/s speed=0.00503x elapsed=0:01:12.94    \nframe=   13 fps=0.2 q=30.9 size=     512KiB time=00:00:00.36 bitrate=11440.0kbits/s speed=0.00499x elapsed=0:01:13.45    \nframe=   14 fps=0.2 q=24.4 size=     512KiB time=00:00:00.40 bitrate=10486.6kbits/s speed=0.00541x elapsed=0:01:13.99    \nframe=   14 fps=0.2 q=24.4 size=     512KiB time=00:00:00.40 bitrate=10486.6kbits/s speed=0.00537x elapsed=0:01:14.51    \nframe=   14 fps=0.2 q=24.4 size=     512KiB time=00:00:00.40 bitrate=10486.6kbits/s speed=0.00533x elapsed=0:01:15.05    \nframe=   15 fps=0.2 q=27.7 size=     768KiB time=00:00:00.43 bitrate=14519.6kbits/s speed=0.00573x elapsed=0:01:15.58    \nframe=   15 fps=0.2 q=27.7 size=     768KiB time=00:00:00.43 bitrate=14519.6kbits/s speed=0.00569x elapsed=0:01:16.11    \nframe=   15 fps=0.2 q=27.7 size=     768KiB time=00:00:00.43 bitrate=14519.6kbits/s speed=0.00565x elapsed=0:01:16.63    \nframe=   15 fps=0.2 q=27.7 size=     768KiB time=00:00:00.43 bitrate=14519.6kbits/s speed=0.00562x elapsed=0:01:17.14    \nframe=   15 fps=0.2 q=27.7 size=     768KiB time=00:00:00.43 bitrate=14519.6kbits/s speed=0.00558x elapsed=0:01:17.66    \nframe=   15 fps=0.2 q=27.7 size=     768KiB time=00:00:00.43 bitrate=14519.6kbits/s speed=0.00554x elapsed=0:01:18.19    \nframe=   15 fps=0.2 q=27.7 size=     768KiB time=00:00:00.43 bitrate=14519.6kbits/s speed=0.0055x elapsed=0:01:18.71    \nframe=   15 fps=0.2 q=27.7 size=     768KiB time=00:00:00.43 bitrate=14519.6kbits/s speed=0.00547x elapsed=0:01:19.25    \nframe=   15 fps=0.2 q=27.7 size=     768KiB time=00:00:00.43 bitrate=14519.6kbits/s speed=0.00543x elapsed=0:01:19.80    \nframe=   15 fps=0.2 q=27.7 size=     768KiB time=00:00:00.43 bitrate=14519.6kbits/s speed=0.00539x elapsed=0:01:20.34    \nframe=   16 fps=0.2 q=30.9 size=     768KiB time=00:00:00.46 bitrate=13482.4kbits/s speed=0.00577x elapsed=0:01:20.88    \nframe=   16 fps=0.2 q=30.9 size=     768KiB time=00:00:00.46 bitrate=13482.4kbits/s speed=0.00573x elapsed=0:01:21.43    \nframe=   16 fps=0.2 q=30.9 size=     768KiB time=00:00:00.46 bitrate=13482.4kbits/s speed=0.00569x elapsed=0:01:21.95    \nframe=   16 fps=0.2 q=30.9 size=     768KiB time=00:00:00.46 bitrate=13482.4kbits/s speed=0.00566x elapsed=0:01:22.49    \nframe=   16 fps=0.2 q=30.9 size=     768KiB time=00:00:00.46 bitrate=13482.4kbits/s speed=0.00562x elapsed=0:01:23.02    \nframe=   17 fps=0.2 q=30.7 size=     768KiB time=00:00:00.50 bitrate=12583.6kbits/s speed=0.00598x elapsed=0:01:23.55    \nframe=   18 fps=0.2 q=24.1 size=     768KiB time=00:00:00.53 bitrate=11797.1kbits/s speed=0.00634x elapsed=0:01:24.07    \nframe=   18 fps=0.2 q=24.1 size=     768KiB time=00:00:00.53 bitrate=11797.1kbits/s speed=0.0063x elapsed=0:01:24.60    \nframe=   18 fps=0.2 q=24.1 size=     768KiB time=00:00:00.53 bitrate=11797.1kbits/s speed=0.00626x elapsed=0:01:25.16    \nframe=   18 fps=0.2 q=24.1 size=     768KiB time=00:00:00.53 bitrate=11797.1kbits/s speed=0.00622x elapsed=0:01:25.70    \nframe=   18 fps=0.2 q=24.1 size=     768KiB time=00:00:00.53 bitrate=11797.1kbits/s speed=0.00618x elapsed=0:01:26.26    \nframe=   18 fps=0.2 q=24.1 size=     768KiB time=00:00:00.53 bitrate=11797.1kbits/s speed=0.00614x elapsed=0:01:26.82    \nframe=   18 fps=0.2 q=24.1 size=     768KiB time=00:00:00.53 bitrate=11797.1kbits/s speed=0.00611x elapsed=0:01:27.32    \nframe=   18 fps=0.2 q=24.1 size=     768KiB time=00:00:00.53 bitrate=11797.1kbits/s speed=0.00607x elapsed=0:01:27.85    \nframe=   18 fps=0.2 q=24.1 size=     768KiB time=00:00:00.53 bitrate=11797.1kbits/s speed=0.00603x elapsed=0:01:28.39    \nframe=   18 fps=0.2 q=24.1 size=     768KiB time=00:00:00.53 bitrate=11797.1kbits/s speed=0.006x elapsed=0:01:28.92    \nframe=   19 fps=0.2 q=27.5 size=     768KiB time=00:00:00.56 bitrate=11103.2kbits/s speed=0.00633x elapsed=0:01:29.48    \nframe=   19 fps=0.2 q=27.5 size=     768KiB time=00:00:00.56 bitrate=11103.2kbits/s speed=0.0063x elapsed=0:01:30.00    \nframe=   20 fps=0.2 q=30.7 size=     768KiB time=00:00:00.60 bitrate=10486.3kbits/s speed=0.00663x elapsed=0:01:30.52    \nframe=   20 fps=0.2 q=30.7 size=     768KiB time=00:00:00.60 bitrate=10486.3kbits/s speed=0.00659x elapsed=0:01:31.04    \nframe=   20 fps=0.2 q=30.7 size=     768KiB time=00:00:00.60 bitrate=10486.3kbits/s speed=0.00655x elapsed=0:01:31.57    \nframe=   21 fps=0.2 q=24.2 size=     768KiB time=00:00:00.63 bitrate=9934.4kbits/s speed=0.00688x elapsed=0:01:32.10    \nframe=   21 fps=0.2 q=24.2 size=     768KiB time=00:00:00.63 bitrate=9934.4kbits/s speed=0.00684x elapsed=0:01:32.61    \nframe=   22 fps=0.2 q=27.4 size=    1024KiB time=00:00:00.66 bitrate=12583.4kbits/s speed=0.00716x elapsed=0:01:33.15    \nframe=   22 fps=0.2 q=27.4 size=    1024KiB time=00:00:00.66 bitrate=12583.4kbits/s speed=0.00711x elapsed=0:01:33.71    \nframe=   22 fps=0.2 q=27.4 size=    1024KiB time=00:00:00.66 bitrate=12583.4kbits/s speed=0.00707x elapsed=0:01:34.25    \nframe=   22 fps=0.2 q=27.4 size=    1024KiB time=00:00:00.66 bitrate=12583.4kbits/s speed=0.00703x elapsed=0:01:34.77    \nframe=   22 fps=0.2 q=27.4 size=    1024KiB time=00:00:00.66 bitrate=12583.4kbits/s speed=0.007x elapsed=0:01:35.29    \nframe=   22 fps=0.2 q=27.4 size=    1024KiB time=00:00:00.66 bitrate=12583.4kbits/s speed=0.00696x elapsed=0:01:35.79    \nframe=   22 fps=0.2 q=27.4 size=    1024KiB time=00:00:00.66 bitrate=12583.4kbits/s speed=0.00692x elapsed=0:01:36.31    \nframe=   22 fps=0.2 q=27.4 size=    1024KiB time=00:00:00.66 bitrate=12583.4kbits/s speed=0.00688x elapsed=0:01:36.83    \nframe=   23 fps=0.2 q=30.2 size=    1024KiB time=00:00:00.70 bitrate=11984.2kbits/s speed=0.00719x elapsed=0:01:37.42    \nframe=   23 fps=0.2 q=30.2 size=    1024KiB time=00:00:00.70 bitrate=11984.2kbits/s speed=0.00715x elapsed=0:01:37.95    \nframe=   23 fps=0.2 q=30.2 size=    1024KiB time=00:00:00.70 bitrate=11984.2kbits/s speed=0.00711x elapsed=0:01:38.47    \nframe=   24 fps=0.2 q=30.1 size=    1024KiB time=00:00:00.73 bitrate=11439.5kbits/s speed=0.00741x elapsed=0:01:38.99    \nframe=   24 fps=0.2 q=30.1 size=    1024KiB time=00:00:00.73 bitrate=11439.5kbits/s speed=0.00737x elapsed=0:01:39.51    \nframe=   25 fps=0.2 q=24.0 size=    1024KiB time=00:00:00.76 bitrate=10942.1kbits/s speed=0.00766x elapsed=0:01:40.05    \nframe=   25 fps=0.2 q=24.0 size=    1024KiB time=00:00:00.76 bitrate=10942.1kbits/s speed=0.00762x elapsed=0:01:40.58    \nframe=   25 fps=0.2 q=24.0 size=    1024KiB time=00:00:00.76 bitrate=10942.1kbits/s speed=0.00758x elapsed=0:01:41.10    \nframe=   26 fps=0.3 q=28.8 size=    1280KiB time=00:00:00.80 bitrate=13107.6kbits/s speed=0.00787x elapsed=0:01:41.61    \nframe=   27 fps=0.3 q=30.3 size=    1280KiB time=00:00:00.83 bitrate=12583.3kbits/s speed=0.00816x elapsed=0:01:42.15    \nframe=   27 fps=0.3 q=30.3 size=    1280KiB time=00:00:00.83 bitrate=12583.3kbits/s speed=0.00812x elapsed=0:01:42.67    \nframe=   27 fps=0.3 q=30.3 size=    1280KiB time=00:00:00.83 bitrate=12583.3kbits/s speed=0.00808x elapsed=0:01:43.19    \nframe=   27 fps=0.3 q=30.3 size=    1280KiB time=00:00:00.83 bitrate=12583.3kbits/s speed=0.00804x elapsed=0:01:43.70    \nframe=   27 fps=0.3 q=30.3 size=    1280KiB time=00:00:00.83 bitrate=12583.3kbits/s speed=0.008x elapsed=0:01:44.21    \nframe=   27 fps=0.3 q=30.3 size=    1280KiB time=00:00:00.83 bitrate=12583.3kbits/s speed=0.00796x elapsed=0:01:44.74    \nframe=   27 fps=0.3 q=30.3 size=    1280KiB time=00:00:00.83 bitrate=12583.3kbits/s speed=0.00791x elapsed=0:01:45.29    \nframe=   27 fps=0.3 q=30.3 size=    1280KiB time=00:00:00.83 bitrate=12583.3kbits/s speed=0.00787x elapsed=0:01:45.82    \nframe=   27 fps=0.3 q=30.3 size=    1280KiB time=00:00:00.83 bitrate=12583.3kbits/s speed=0.00784x elapsed=0:01:46.35    \nframe=   27 fps=0.3 q=30.3 size=    1280KiB time=00:00:00.83 bitrate=12583.3kbits/s speed=0.0078x elapsed=0:01:46.88    \nframe=   27 fps=0.3 q=30.3 size=    1280KiB time=00:00:00.83 bitrate=12583.3kbits/s speed=0.00776x elapsed=0:01:47.44    \nframe=   28 fps=0.3 q=30.2 size=    1280KiB time=00:00:00.86 bitrate=12099.4kbits/s speed=0.00803x elapsed=0:01:47.99    \nframe=   28 fps=0.3 q=30.2 size=    1280KiB time=00:00:00.86 bitrate=12099.4kbits/s speed=0.00799x elapsed=0:01:48.52    \nframe=   28 fps=0.3 q=30.2 size=    1280KiB time=00:00:00.86 bitrate=12099.4kbits/s speed=0.00795x elapsed=0:01:49.05    \nframe=   28 fps=0.3 q=30.2 size=    1280KiB time=00:00:00.86 bitrate=12099.4kbits/s speed=0.00791x elapsed=0:01:49.62    \nframe=   28 fps=0.3 q=30.2 size=    1280KiB time=00:00:00.86 bitrate=12099.4kbits/s speed=0.00787x elapsed=0:01:50.14    \nframe=   28 fps=0.3 q=30.2 size=    1280KiB time=00:00:00.86 bitrate=12099.4kbits/s speed=0.00783x elapsed=0:01:50.68    \nframe=   28 fps=0.3 q=30.2 size=    1280KiB time=00:00:00.86 bitrate=12099.4kbits/s speed=0.00779x elapsed=0:01:51.20    \nframe=   29 fps=0.3 q=30.0 size=    1280KiB time=00:00:00.86 bitrate=12099.4kbits/s speed=0.00776x elapsed=0:01:51.72    \nframe=   29 fps=0.3 q=30.0 size=    1280KiB time=00:00:00.90 bitrate=11651.2kbits/s speed=0.00802x elapsed=0:01:52.24    \nframe=   30 fps=0.3 q=23.7 size=    1280KiB time=00:00:00.93 bitrate=11235.1kbits/s speed=0.00827x elapsed=0:01:52.79    \nframe=   30 fps=0.3 q=23.7 size=    1280KiB time=00:00:00.93 bitrate=11235.1kbits/s speed=0.00824x elapsed=0:01:53.33    \nframe=   31 fps=0.3 q=27.2 size=    1280KiB time=00:00:00.96 bitrate=10847.7kbits/s speed=0.00849x elapsed=0:01:53.84    \nframe=   31 fps=0.3 q=27.2 size=    1280KiB time=00:00:00.96 bitrate=10847.7kbits/s speed=0.00845x elapsed=0:01:54.36    \nframe=   31 fps=0.3 q=27.2 size=    1280KiB time=00:00:00.96 bitrate=10847.7kbits/s speed=0.00841x elapsed=0:01:54.88    \nframe=   31 fps=0.3 q=27.2 size=    1280KiB time=00:00:00.96 bitrate=10847.7kbits/s speed=0.00838x elapsed=0:01:55.39    \nframe=   31 fps=0.3 q=27.2 size=    1280KiB time=00:00:00.96 bitrate=10847.7kbits/s speed=0.00834x elapsed=0:01:55.91    \nframe=   32 fps=0.3 q=30.1 size=    1280KiB time=00:00:01.00 bitrate=10486.1kbits/s speed=0.00859x elapsed=0:01:56.42    \nframe=   32 fps=0.3 q=30.1 size=    1280KiB time=00:00:01.00 bitrate=10486.1kbits/s speed=0.00855x elapsed=0:01:56.94    \nframe=   32 fps=0.3 q=30.1 size=    1280KiB time=00:00:01.00 bitrate=10486.1kbits/s speed=0.00851x elapsed=0:01:57.46    \nframe=   33 fps=0.3 q=30.0 size=    1536KiB time=00:00:01.03 bitrate=12177.4kbits/s speed=0.00876x elapsed=0:01:57.98    \nframe=   33 fps=0.3 q=30.0 size=    1536KiB time=00:00:01.03 bitrate=12177.4kbits/s speed=0.00872x elapsed=0:01:58.50    \nframe=   34 fps=0.3 q=23.6 size=    1536KiB time=00:00:01.06 bitrate=11796.8kbits/s speed=0.00896x elapsed=0:01:59.01    \nframe=   34 fps=0.3 q=23.6 size=    1536KiB time=00:00:01.06 bitrate=11796.8kbits/s speed=0.00892x elapsed=0:01:59.53    \nframe=   35 fps=0.3 q=27.0 size=    1536KiB time=00:00:01.10 bitrate=11439.3kbits/s speed=0.00916x elapsed=0:02:00.04    \nframe=   35 fps=0.3 q=27.0 size=    1536KiB time=00:00:01.10 bitrate=11439.3kbits/s speed=0.00912x elapsed=0:02:00.56    \nframe=   35 fps=0.3 q=27.0 size=    1536KiB time=00:00:01.10 bitrate=11439.3kbits/s speed=0.00908x elapsed=0:02:01.08    \nframe=   36 fps=0.3 q=29.9 size=    1536KiB time=00:00:01.13 bitrate=11102.9kbits/s speed=0.00932x elapsed=0:02:01.59    \nframe=   36 fps=0.3 q=29.9 size=    1536KiB time=00:00:01.13 bitrate=11102.9kbits/s speed=0.00928x elapsed=0:02:02.11    \nframe=   37 fps=0.3 q=30.0 size=    1536KiB time=00:00:01.16 bitrate=10785.7kbits/s speed=0.00951x elapsed=0:02:02.63    \nframe=   37 fps=0.3 q=30.0 size=    1536KiB time=00:00:01.16 bitrate=10785.7kbits/s speed=0.00947x elapsed=0:02:03.14    \nframe=   39 fps=0.3 q=26.9 size=    1792KiB time=00:00:01.23 bitrate=11903.0kbits/s speed=0.00997x elapsed=0:02:03.66    \nframe=   39 fps=0.3 q=26.9 size=    1792KiB time=00:00:01.23 bitrate=11903.0kbits/s speed=0.00993x elapsed=0:02:04.18    \nframe=   39 fps=0.3 q=26.9 size=    1792KiB time=00:00:01.23 bitrate=11903.0kbits/s speed=0.00989x elapsed=0:02:04.68    \nframe=   39 fps=0.3 q=26.9 size=    1792KiB time=00:00:01.23 bitrate=11903.0kbits/s speed=0.00985x elapsed=0:02:05.20    \nframe=   40 fps=0.3 q=29.9 size=    1792KiB time=00:00:01.26 bitrate=11589.8kbits/s speed=0.0101x elapsed=0:02:05.71    \nframe=   40 fps=0.3 q=29.9 size=    1792KiB time=00:00:01.26 bitrate=11589.8kbits/s speed=0.01x elapsed=0:02:06.23    \nframe=   41 fps=0.3 q=30.0 size=    1792KiB time=00:00:01.30 bitrate=11292.6kbits/s speed=0.0103x elapsed=0:02:06.75    \nframe=   42 fps=0.3 q=23.8 size=    1792KiB time=00:00:01.33 bitrate=11010.3kbits/s speed=0.0105x elapsed=0:02:07.26    \nframe=   42 fps=0.3 q=23.8 size=    1792KiB time=00:00:01.33 bitrate=11010.3kbits/s speed=0.0104x elapsed=0:02:07.78    \nframe=   42 fps=0.3 q=23.8 size=    1792KiB time=00:00:01.33 bitrate=11010.3kbits/s speed=0.0104x elapsed=0:02:08.30    \nframe=   42 fps=0.3 q=23.8 size=    1792KiB time=00:00:01.33 bitrate=11010.3kbits/s speed=0.0104x elapsed=0:02:08.81    \nframe=   43 fps=0.3 q=27.0 size=    2048KiB time=00:00:01.36 bitrate=12276.3kbits/s speed=0.0106x elapsed=0:02:09.33    \nframe=   43 fps=0.3 q=27.0 size=    2048KiB time=00:00:01.36 bitrate=12276.3kbits/s speed=0.0105x elapsed=0:02:09.84    \nframe=   44 fps=0.3 q=30.1 size=    2048KiB time=00:00:01.40 bitrate=11984.0kbits/s speed=0.0107x elapsed=0:02:10.36    \nframe=   44 fps=0.3 q=30.1 size=    2048KiB time=00:00:01.40 bitrate=11984.0kbits/s speed=0.0107x elapsed=0:02:10.88    \nframe=   45 fps=0.3 q=23.7 size=    2048KiB time=00:00:01.43 bitrate=11705.3kbits/s speed=0.0109x elapsed=0:02:11.39    \nframe=   45 fps=0.3 q=23.7 size=    2048KiB time=00:00:01.43 bitrate=11705.3kbits/s speed=0.0109x elapsed=0:02:11.91    \nframe=   46 fps=0.3 q=26.8 size=    2048KiB time=00:00:01.46 bitrate=11439.2kbits/s speed=0.0111x elapsed=0:02:12.42    \nframe=   46 fps=0.3 q=26.8 size=    2048KiB time=00:00:01.46 bitrate=11439.2kbits/s speed=0.011x elapsed=0:02:12.94    \nframe=   46 fps=0.3 q=26.8 size=    2048KiB time=00:00:01.46 bitrate=11439.2kbits/s speed=0.011x elapsed=0:02:13.45    \nframe=   46 fps=0.3 q=26.8 size=    2048KiB time=00:00:01.46 bitrate=11439.2kbits/s speed=0.0109x elapsed=0:02:13.97    \nframe=   47 fps=0.3 q=30.0 size=    2048KiB time=00:00:01.50 bitrate=11185.0kbits/s speed=0.0112x elapsed=0:02:14.49    \nframe=   47 fps=0.3 q=30.0 size=    2048KiB time=00:00:01.50 bitrate=11185.0kbits/s speed=0.0111x elapsed=0:02:14.99    \nframe=   48 fps=0.4 q=30.0 size=    2048KiB time=00:00:01.53 bitrate=10941.9kbits/s speed=0.0113x elapsed=0:02:15.51    \nframe=   49 fps=0.4 q=23.5 size=    2048KiB time=00:00:01.56 bitrate=10709.1kbits/s speed=0.0115x elapsed=0:02:16.04    \nframe=   50 fps=0.4 q=28.4 size=    2304KiB time=00:00:01.60 bitrate=11796.7kbits/s speed=0.0117x elapsed=0:02:16.54    \nframe=   50 fps=0.4 q=28.4 size=    2304KiB time=00:00:01.60 bitrate=11796.7kbits/s speed=0.0117x elapsed=0:02:17.06    \nframe=   51 fps=0.4 q=29.8 size=    2304KiB time=00:00:01.63 bitrate=11556.0kbits/s speed=0.0119x elapsed=0:02:17.59    \nframe=   51 fps=0.4 q=29.8 size=    2304KiB time=00:00:01.63 bitrate=11556.0kbits/s speed=0.0118x elapsed=0:02:18.11    \nframe=   51 fps=0.4 q=29.8 size=    2304KiB time=00:00:01.63 bitrate=11556.0kbits/s speed=0.0118x elapsed=0:02:18.63    \nframe=   51 fps=0.4 q=29.8 size=    2304KiB time=00:00:01.63 bitrate=11556.0kbits/s speed=0.0117x elapsed=0:02:19.13    \nframe=   51 fps=0.4 q=29.8 size=    2304KiB time=00:00:01.63 bitrate=11556.0kbits/s speed=0.0117x elapsed=0:02:19.65    \nframe=   51 fps=0.4 q=29.8 size=    2304KiB time=00:00:01.63 bitrate=11556.0kbits/s speed=0.0117x elapsed=0:02:20.18    \nframe=   52 fps=0.4 q=29.3 size=    2304KiB time=00:00:01.66 bitrate=11324.8kbits/s speed=0.0118x elapsed=0:02:20.73    \nframe=   52 fps=0.4 q=29.3 size=    2304KiB time=00:00:01.66 bitrate=11324.8kbits/s speed=0.0118x elapsed=0:02:21.28    \nframe=   52 fps=0.4 q=29.3 size=    2304KiB time=00:00:01.66 bitrate=11324.8kbits/s speed=0.0118x elapsed=0:02:21.81    \nframe=   52 fps=0.4 q=29.3 size=    2304KiB time=00:00:01.66 bitrate=11324.8kbits/s speed=0.0117x elapsed=0:02:22.33    \nframe=   52 fps=0.4 q=29.3 size=    2304KiB time=00:00:01.66 bitrate=11324.8kbits/s speed=0.0117x elapsed=0:02:22.87    \nframe=   52 fps=0.4 q=29.3 size=    2304KiB time=00:00:01.66 bitrate=11324.8kbits/s speed=0.0116x elapsed=0:02:23.40    \nframe=   52 fps=0.4 q=29.3 size=    2304KiB time=00:00:01.66 bitrate=11324.8kbits/s speed=0.0116x elapsed=0:02:23.95    \nframe=   52 fps=0.4 q=29.3 size=    2304KiB time=00:00:01.66 bitrate=11324.8kbits/s speed=0.0115x elapsed=0:02:24.47    \nframe=   52 fps=0.4 q=29.3 size=    2304KiB time=00:00:01.66 bitrate=11324.8kbits/s speed=0.0115x elapsed=0:02:25.00    \nframe=   53 fps=0.4 q=30.1 size=    2304KiB time=00:00:01.70 bitrate=11102.8kbits/s speed=0.0117x elapsed=0:02:25.53    \nframe=   53 fps=0.4 q=30.1 size=    2304KiB time=00:00:01.70 bitrate=11102.8kbits/s speed=0.0116x elapsed=0:02:26.04    \nframe=   54 fps=0.4 q=23.7 size=    2304KiB time=00:00:01.73 bitrate=10889.3kbits/s speed=0.0118x elapsed=0:02:26.59    \nframe=   54 fps=0.4 q=23.7 size=    2304KiB time=00:00:01.73 bitrate=10889.3kbits/s speed=0.0118x elapsed=0:02:27.11    \nframe=   54 fps=0.4 q=23.7 size=    2304KiB time=00:00:01.73 bitrate=10889.3kbits/s speed=0.0117x elapsed=0:02:27.64    \nframe=   54 fps=0.4 q=23.7 size=    2304KiB time=00:00:01.73 bitrate=10889.3kbits/s speed=0.0117x elapsed=0:02:28.18    \nframe=   55 fps=0.4 q=26.7 size=    2560KiB time=00:00:01.76 bitrate=11870.9kbits/s speed=0.0119x elapsed=0:02:28.73    \nframe=   55 fps=0.4 q=26.7 size=    2560KiB time=00:00:01.76 bitrate=11870.9kbits/s speed=0.0118x elapsed=0:02:29.26    \nframe=   55 fps=0.4 q=26.7 size=    2560KiB time=00:00:01.76 bitrate=11870.9kbits/s speed=0.0118x elapsed=0:02:29.79    \nframe=   55 fps=0.4 q=26.7 size=    2560KiB time=00:00:01.76 bitrate=11870.9kbits/s speed=0.0118x elapsed=0:02:30.31    \nframe=   55 fps=0.4 q=26.7 size=    2560KiB time=00:00:01.76 bitrate=11870.9kbits/s speed=0.0117x elapsed=0:02:30.82    \nframe=   55 fps=0.4 q=26.7 size=    2560KiB time=00:00:01.76 bitrate=11870.9kbits/s speed=0.0117x elapsed=0:02:31.36    \nframe=   55 fps=0.4 q=26.7 size=    2560KiB time=00:00:01.76 bitrate=11870.9kbits/s speed=0.0116x elapsed=0:02:31.91    \nframe=   55 fps=0.4 q=26.7 size=    2560KiB time=00:00:01.76 bitrate=11870.9kbits/s speed=0.0116x elapsed=0:02:32.45    \nframe=   55 fps=0.4 q=26.7 size=    2560KiB time=00:00:01.76 bitrate=11870.9kbits/s speed=0.0115x elapsed=0:02:32.98    \nframe=   55 fps=0.4 q=26.7 size=    2560KiB time=00:00:01.76 bitrate=11870.9kbits/s speed=0.0115x elapsed=0:02:33.52    \nframe=   55 fps=0.4 q=26.7 size=    2560KiB time=00:00:01.76 bitrate=11870.9kbits/s speed=0.0115x elapsed=0:02:34.05    \nframe=   55 fps=0.4 q=26.7 size=    2560KiB time=00:00:01.76 bitrate=11870.9kbits/s speed=0.0114x elapsed=0:02:34.59    \nframe=   55 fps=0.4 q=26.7 size=    2560KiB time=00:00:01.76 bitrate=11870.9kbits/s speed=0.0114x elapsed=0:02:35.11    \nframe=   55 fps=0.4 q=26.7 size=    2560KiB time=00:00:01.76 bitrate=11870.9kbits/s speed=0.0113x elapsed=0:02:35.66    \nframe=   55 fps=0.4 q=26.7 size=    2560KiB time=00:00:01.76 bitrate=11870.9kbits/s speed=0.0113x elapsed=0:02:36.19    \nframe=   56 fps=0.4 q=29.7 size=    2560KiB time=00:00:01.80 bitrate=11651.0kbits/s speed=0.0115x elapsed=0:02:36.72    \nframe=   56 fps=0.4 q=29.7 size=    2560KiB time=00:00:01.80 bitrate=11651.0kbits/s speed=0.0114x elapsed=0:02:37.24    \nframe=   56 fps=0.4 q=29.7 size=    2560KiB time=00:00:01.80 bitrate=11651.0kbits/s speed=0.0114x elapsed=0:02:37.76    \nframe=   56 fps=0.4 q=29.7 size=    2560KiB time=00:00:01.80 bitrate=11651.0kbits/s speed=0.0114x elapsed=0:02:38.31    \nframe=   56 fps=0.4 q=29.7 size=    2560KiB time=00:00:01.80 bitrate=11651.0kbits/s speed=0.0113x elapsed=0:02:38.87    \nframe=   56 fps=0.4 q=29.7 size=    2560KiB time=00:00:01.80 bitrate=11651.0kbits/s speed=0.0113x elapsed=0:02:39.39    \nframe=   56 fps=0.4 q=29.7 size=    2560KiB time=00:00:01.80 bitrate=11651.0kbits/s speed=0.0113x elapsed=0:02:39.94    \nframe=   57 fps=0.4 q=29.7 size=    2560KiB time=00:00:01.83 bitrate=11439.2kbits/s speed=0.0114x elapsed=0:02:40.46    \nframe=   57 fps=0.4 q=29.7 size=    2560KiB time=00:00:01.83 bitrate=11439.2kbits/s speed=0.0114x elapsed=0:02:41.01    \nframe=   57 fps=0.4 q=29.7 size=    2560KiB time=00:00:01.83 bitrate=11439.2kbits/s speed=0.0113x elapsed=0:02:41.55    \nframe=   58 fps=0.4 q=23.8 size=    2560KiB time=00:00:01.86 bitrate=11234.9kbits/s speed=0.0115x elapsed=0:02:42.07    \nframe=   58 fps=0.4 q=23.8 size=    2560KiB time=00:00:01.86 bitrate=11234.9kbits/s speed=0.0115x elapsed=0:02:42.62    \nframe=   59 fps=0.4 q=26.8 size=    2560KiB time=00:00:01.90 bitrate=11037.8kbits/s speed=0.0116x elapsed=0:02:43.14    \nframe=   59 fps=0.4 q=26.8 size=    2560KiB time=00:00:01.90 bitrate=11037.8kbits/s speed=0.0116x elapsed=0:02:43.69    \nframe=   59 fps=0.4 q=26.8 size=    2560KiB time=00:00:01.90 bitrate=11037.8kbits/s speed=0.0116x elapsed=0:02:44.23    \nframe=   59 fps=0.4 q=26.8 size=    2560KiB time=00:00:01.90 bitrate=11037.8kbits/s speed=0.0115x elapsed=0:02:44.76    \nframe=   59 fps=0.4 q=26.8 size=    2560KiB time=00:00:01.90 bitrate=11037.8kbits/s speed=0.0115x elapsed=0:02:45.32    \nframe=   59 fps=0.4 q=26.8 size=    2560KiB time=00:00:01.90 bitrate=11037.8kbits/s speed=0.0115x elapsed=0:02:45.84    \nframe=   59 fps=0.4 q=26.8 size=    2560KiB time=00:00:01.90 bitrate=11037.8kbits/s speed=0.0114x elapsed=0:02:46.36    \nframe=   59 fps=0.4 q=26.8 size=    2560KiB time=00:00:01.90 bitrate=11037.8kbits/s speed=0.0114x elapsed=0:02:46.90    \nframe=   59 fps=0.4 q=26.8 size=    2560KiB time=00:00:01.90 bitrate=11037.8kbits/s speed=0.0113x elapsed=0:02:47.42    \nframe=   59 fps=0.4 q=26.8 size=    2560KiB time=00:00:01.90 bitrate=11037.8kbits/s speed=0.0113x elapsed=0:02:47.96    \nframe=   59 fps=0.4 q=26.8 size=    2560KiB time=00:00:01.90 bitrate=11037.8kbits/s speed=0.0113x elapsed=0:02:48.50    \nframe=   59 fps=0.3 q=26.8 size=    2560KiB time=00:00:01.90 bitrate=11037.8kbits/s speed=0.0112x elapsed=0:02:49.02    \nframe=   59 fps=0.3 q=26.8 size=    2560KiB time=00:00:01.90 bitrate=11037.8kbits/s speed=0.0112x elapsed=0:02:49.53    \nframe=   60 fps=0.4 q=29.8 size=    2816KiB time=00:00:01.93 bitrate=11932.3kbits/s speed=0.0114x elapsed=0:02:50.05    \nframe=   60 fps=0.4 q=29.8 size=    2816KiB time=00:00:01.93 bitrate=11932.3kbits/s speed=0.0113x elapsed=0:02:50.59    \nframe=   60 fps=0.4 q=29.8 size=    2816KiB time=00:00:01.93 bitrate=11932.3kbits/s speed=0.0113x elapsed=0:02:51.11    \nframe=   60 fps=0.3 q=29.8 size=    2816KiB time=00:00:01.93 bitrate=11932.3kbits/s speed=0.0113x elapsed=0:02:51.64    \nframe=   60 fps=0.3 q=29.8 size=    2816KiB time=00:00:01.93 bitrate=11932.3kbits/s speed=0.0112x elapsed=0:02:52.15    \nframe=   60 fps=0.3 q=29.8 size=    2816KiB time=00:00:01.93 bitrate=11932.3kbits/s speed=0.0112x elapsed=0:02:52.71    \nframe=   60 fps=0.3 q=29.8 size=    2816KiB time=00:00:01.93 bitrate=11932.3kbits/s speed=0.0112x elapsed=0:02:53.26    \nframe=   60 fps=0.3 q=29.8 size=    2816KiB time=00:00:01.93 bitrate=11932.3kbits/s speed=0.0111x elapsed=0:02:53.78    \nframe=   61 fps=0.3 q=29.8 size=    2816KiB time=00:00:01.96 bitrate=11730.0kbits/s speed=0.0113x elapsed=0:02:54.33    \nframe=   61 fps=0.3 q=29.8 size=    2816KiB time=00:00:01.96 bitrate=11730.0kbits/s speed=0.0112x elapsed=0:02:54.85    \nframe=   61 fps=0.3 q=29.8 size=    2816KiB time=00:00:01.96 bitrate=11730.0kbits/s speed=0.0112x elapsed=0:02:55.38    \nframe=   62 fps=0.4 q=23.7 size=    2816KiB time=00:00:02.00 bitrate=11534.5kbits/s speed=0.0114x elapsed=0:02:55.91    \nframe=   62 fps=0.4 q=23.7 size=    2816KiB time=00:00:02.00 bitrate=11534.5kbits/s speed=0.0113x elapsed=0:02:56.43    \nframe=   62 fps=0.4 q=23.7 size=    2816KiB time=00:00:02.00 bitrate=11534.5kbits/s speed=0.0113x elapsed=0:02:56.98    \nframe=   63 fps=0.4 q=26.7 size=    2816KiB time=00:00:02.03 bitrate=11345.4kbits/s speed=0.0115x elapsed=0:02:57.53    \nframe=   63 fps=0.4 q=26.7 size=    2816KiB time=00:00:02.03 bitrate=11345.4kbits/s speed=0.0114x elapsed=0:02:58.05    \nframe=   63 fps=0.4 q=26.7 size=    2816KiB time=00:00:02.03 bitrate=11345.4kbits/s speed=0.0114x elapsed=0:02:58.59    \nframe=   63 fps=0.4 q=26.7 size=    2816KiB time=00:00:02.03 bitrate=11345.4kbits/s speed=0.0113x elapsed=0:02:59.16    \nframe=   63 fps=0.4 q=26.7 size=    2816KiB time=00:00:02.03 bitrate=11345.4kbits/s speed=0.0113x elapsed=0:02:59.69    \nframe=   63 fps=0.3 q=26.7 size=    2816KiB time=00:00:02.03 bitrate=11345.4kbits/s speed=0.0113x elapsed=0:03:00.22    \nframe=   63 fps=0.3 q=26.7 size=    2816KiB time=00:00:02.03 bitrate=11345.4kbits/s speed=0.0112x elapsed=0:03:00.76    \nframe=   64 fps=0.4 q=29.9 size=    2816KiB time=00:00:02.06 bitrate=11162.4kbits/s speed=0.0114x elapsed=0:03:01.30    \nframe=   64 fps=0.4 q=29.9 size=    2816KiB time=00:00:02.06 bitrate=11162.4kbits/s speed=0.0114x elapsed=0:03:01.82    \nframe=   64 fps=0.4 q=29.9 size=    2816KiB time=00:00:02.06 bitrate=11162.4kbits/s speed=0.0113x elapsed=0:03:02.35    \nframe=   64 fps=0.3 q=29.9 size=    2816KiB time=00:00:02.06 bitrate=11162.4kbits/s speed=0.0113x elapsed=0:03:02.87    \nframe=   64 fps=0.3 q=29.9 size=    2816KiB time=00:00:02.06 bitrate=11162.4kbits/s speed=0.0113x elapsed=0:03:03.42    \nframe=   64 fps=0.3 q=29.9 size=    2816KiB time=00:00:02.06 bitrate=11162.4kbits/s speed=0.0112x elapsed=0:03:03.95    \nframe=   65 fps=0.4 q=29.7 size=    2816KiB time=00:00:02.10 bitrate=10985.2kbits/s speed=0.0114x elapsed=0:03:04.50    \nframe=   65 fps=0.4 q=29.7 size=    2816KiB time=00:00:02.10 bitrate=10985.2kbits/s speed=0.0113x elapsed=0:03:05.05    \nframe=   65 fps=0.4 q=29.7 size=    2816KiB time=00:00:02.10 bitrate=10985.2kbits/s speed=0.0113x elapsed=0:03:05.58    \nframe=   65 fps=0.3 q=29.7 size=    2816KiB time=00:00:02.10 bitrate=10985.2kbits/s speed=0.0113x elapsed=0:03:06.11    \nframe=   65 fps=0.3 q=29.7 size=    2816KiB time=00:00:02.10 bitrate=10985.2kbits/s speed=0.0113x elapsed=0:03:06.64    \nframe=   66 fps=0.4 q=23.8 size=    2816KiB time=00:00:02.13 bitrate=10813.6kbits/s speed=0.0114x elapsed=0:03:07.18    \nframe=   66 fps=0.4 q=23.8 size=    2816KiB time=00:00:02.13 bitrate=10813.6kbits/s speed=0.0114x elapsed=0:03:07.71    \nframe=   66 fps=0.4 q=23.8 size=    2816KiB time=00:00:02.13 bitrate=10813.6kbits/s speed=0.0113x elapsed=0:03:08.24    \nframe=   66 fps=0.3 q=23.8 size=    2816KiB time=00:00:02.13 bitrate=10813.6kbits/s speed=0.0113x elapsed=0:03:08.79    \nframe=   66 fps=0.3 q=23.8 size=    2816KiB time=00:00:02.13 bitrate=10813.6kbits/s speed=0.0113x elapsed=0:03:09.31    \nframe=   66 fps=0.3 q=23.8 size=    2816KiB time=00:00:02.13 bitrate=10813.6kbits/s speed=0.0112x elapsed=0:03:09.84    \nframe=   66 fps=0.3 q=23.8 size=    2816KiB time=00:00:02.13 bitrate=10813.6kbits/s speed=0.0112x elapsed=0:03:10.37    \nframe=   66 fps=0.3 q=23.8 size=    2816KiB time=00:00:02.13 bitrate=10813.6kbits/s speed=0.0112x elapsed=0:03:10.91    \nframe=   67 fps=0.3 q=26.5 size=    3072KiB time=00:00:02.16 bitrate=11615.2kbits/s speed=0.0113x elapsed=0:03:11.46    \nframe=   67 fps=0.3 q=26.5 size=    3072KiB time=00:00:02.16 bitrate=11615.2kbits/s speed=0.0113x elapsed=0:03:12.01    \nframe=   67 fps=0.3 q=26.5 size=    3072KiB time=00:00:02.16 bitrate=11615.2kbits/s speed=0.0113x elapsed=0:03:12.51    \nframe=   68 fps=0.4 q=29.6 size=    3072KiB time=00:00:02.20 bitrate=11439.2kbits/s speed=0.0114x elapsed=0:03:13.03    \nframe=   68 fps=0.4 q=29.6 size=    3072KiB time=00:00:02.20 bitrate=11439.2kbits/s speed=0.0114x elapsed=0:03:13.56    \nframe=   68 fps=0.4 q=29.6 size=    3072KiB time=00:00:02.20 bitrate=11439.2kbits/s speed=0.0113x elapsed=0:03:14.09    \nframe=   69 fps=0.4 q=23.6 size=    3072KiB time=00:00:02.23 bitrate=11268.4kbits/s speed=0.0115x elapsed=0:03:14.61    \nframe=   69 fps=0.4 q=23.6 size=    3072KiB time=00:00:02.23 bitrate=11268.4kbits/s speed=0.0114x elapsed=0:03:15.14    \nframe=   69 fps=0.4 q=23.6 size=    3072KiB time=00:00:02.23 bitrate=11268.4kbits/s speed=0.0114x elapsed=0:03:15.72    \nframe=   69 fps=0.4 q=23.6 size=    3072KiB time=00:00:02.23 bitrate=11268.4kbits/s speed=0.0114x elapsed=0:03:16.31    \nframe=   69 fps=0.4 q=23.6 size=    3072KiB time=00:00:02.23 bitrate=11268.4kbits/s speed=0.0113x elapsed=0:03:16.88    \nframe=   70 fps=0.4 q=26.7 size=    3328KiB time=00:00:02.26 bitrate=12027.9kbits/s speed=0.0115x elapsed=0:03:17.38    \nframe=   70 fps=0.4 q=26.7 size=    3328KiB time=00:00:02.26 bitrate=12027.9kbits/s speed=0.0115x elapsed=0:03:17.93    \nframe=   70 fps=0.4 q=26.7 size=    3328KiB time=00:00:02.26 bitrate=12027.9kbits/s speed=0.0114x elapsed=0:03:18.46    \nframe=   70 fps=0.4 q=26.7 size=    3328KiB time=00:00:02.26 bitrate=12027.9kbits/s speed=0.0114x elapsed=0:03:19.00    \nframe=   70 fps=0.4 q=26.7 size=    3328KiB time=00:00:02.26 bitrate=12027.9kbits/s speed=0.0114x elapsed=0:03:19.57    \nframe=   71 fps=0.4 q=29.5 size=    3328KiB time=00:00:02.30 bitrate=11853.6kbits/s speed=0.0115x elapsed=0:03:20.11    \nframe=   71 fps=0.4 q=29.5 size=    3328KiB time=00:00:02.30 bitrate=11853.6kbits/s speed=0.0115x elapsed=0:03:20.65    \nframe=   71 fps=0.4 q=29.5 size=    3328KiB time=00:00:02.30 bitrate=11853.6kbits/s speed=0.0114x elapsed=0:03:21.24    \nframe=   71 fps=0.4 q=29.5 size=    3328KiB time=00:00:02.30 bitrate=11853.6kbits/s speed=0.0114x elapsed=0:03:21.76    \nframe=   71 fps=0.4 q=29.5 size=    3328KiB time=00:00:02.30 bitrate=11853.6kbits/s speed=0.0114x elapsed=0:03:22.33    \nframe=   71 fps=0.4 q=29.5 size=    3328KiB time=00:00:02.30 bitrate=11853.6kbits/s speed=0.0113x elapsed=0:03:22.85    \nframe=   71 fps=0.3 q=29.5 size=    3328KiB time=00:00:02.30 bitrate=11853.6kbits/s speed=0.0113x elapsed=0:03:23.41    \nframe=   71 fps=0.3 q=29.5 size=    3328KiB time=00:00:02.30 bitrate=11853.6kbits/s speed=0.0113x elapsed=0:03:23.96    \nframe=   71 fps=0.3 q=29.5 size=    3328KiB time=00:00:02.30 bitrate=11853.6kbits/s speed=0.0112x elapsed=0:03:24.53    \nframe=   72 fps=0.4 q=29.8 size=    3328KiB time=00:00:02.33 bitrate=11684.3kbits/s speed=0.0114x elapsed=0:03:25.06    \nframe=   72 fps=0.4 q=29.8 size=    3328KiB time=00:00:02.33 bitrate=11684.3kbits/s speed=0.0113x elapsed=0:03:25.59    \nframe=   73 fps=0.4 q=23.3 size=    3328KiB time=00:00:02.36 bitrate=11519.7kbits/s speed=0.0115x elapsed=0:03:26.14    \nframe=   73 fps=0.4 q=23.3 size=    3328KiB time=00:00:02.36 bitrate=11519.7kbits/s speed=0.0115x elapsed=0:03:26.68    \nframe=   73 fps=0.4 q=23.3 size=    3328KiB time=00:00:02.36 bitrate=11519.7kbits/s speed=0.0114x elapsed=0:03:27.23    \nframe=   74 fps=0.4 q=26.4 size=    3328KiB time=00:00:02.40 bitrate=11359.7kbits/s speed=0.0116x elapsed=0:03:27.77    \nframe=   74 fps=0.4 q=26.4 size=    3328KiB time=00:00:02.40 bitrate=11359.7kbits/s speed=0.0115x elapsed=0:03:28.35    \nframe=   74 fps=0.4 q=26.4 size=    3328KiB time=00:00:02.40 bitrate=11359.7kbits/s speed=0.0115x elapsed=0:03:28.88    \nframe=   74 fps=0.4 q=26.4 size=    3328KiB time=00:00:02.40 bitrate=11359.7kbits/s speed=0.0115x elapsed=0:03:29.47    \nframe=   74 fps=0.4 q=26.4 size=    3328KiB time=00:00:02.40 bitrate=11359.7kbits/s speed=0.0114x elapsed=0:03:30.00    \nframe=   75 fps=0.4 q=29.4 size=    3328KiB time=00:00:02.40 bitrate=11359.7kbits/s speed=0.0114x elapsed=0:03:30.56    \nframe=   75 fps=0.4 q=29.4 size=    3328KiB time=00:00:02.43 bitrate=11204.1kbits/s speed=0.0115x elapsed=0:03:31.16    \nframe=   75 fps=0.4 q=29.4 size=    3328KiB time=00:00:02.43 bitrate=11204.1kbits/s speed=0.0115x elapsed=0:03:31.70    \nframe=   75 fps=0.4 q=29.4 size=    3328KiB time=00:00:02.43 bitrate=11204.1kbits/s speed=0.0115x elapsed=0:03:32.22    \nframe=   75 fps=0.4 q=29.4 size=    3328KiB time=00:00:02.43 bitrate=11204.1kbits/s speed=0.0114x elapsed=0:03:32.74    \nframe=   75 fps=0.4 q=29.4 size=    3328KiB time=00:00:02.43 bitrate=11204.1kbits/s speed=0.0114x elapsed=0:03:33.24    \nframe=   75 fps=0.4 q=29.4 size=    3328KiB time=00:00:02.43 bitrate=11204.1kbits/s speed=0.0114x elapsed=0:03:33.77    \nframe=   76 fps=0.4 q=29.3 size=    3328KiB time=00:00:02.46 bitrate=11052.7kbits/s speed=0.0115x elapsed=0:03:34.28    \nframe=   77 fps=0.4 q=23.2 size=    3328KiB time=00:00:02.50 bitrate=10905.3kbits/s speed=0.0116x elapsed=0:03:34.79    \nframe=   77 fps=0.4 q=23.2 size=    3328KiB time=00:00:02.50 bitrate=10905.3kbits/s speed=0.0116x elapsed=0:03:35.31    \nframe=   78 fps=0.4 q=26.2 size=    3584KiB time=00:00:02.53 bitrate=11589.7kbits/s speed=0.0117x elapsed=0:03:35.83    \nframe=   78 fps=0.4 q=26.2 size=    3584KiB time=00:00:02.53 bitrate=11589.7kbits/s speed=0.0117x elapsed=0:03:36.34    \nframe=   78 fps=0.4 q=26.2 size=    3584KiB time=00:00:02.53 bitrate=11589.7kbits/s speed=0.0117x elapsed=0:03:36.86    \nframe=   78 fps=0.4 q=26.2 size=    3584KiB time=00:00:02.53 bitrate=11589.7kbits/s speed=0.0117x elapsed=0:03:37.37    \nframe=   78 fps=0.4 q=26.2 size=    3584KiB time=00:00:02.53 bitrate=11589.7kbits/s speed=0.0116x elapsed=0:03:37.92    \nframe=   79 fps=0.4 q=29.3 size=    3584KiB time=00:00:02.56 bitrate=11439.1kbits/s speed=0.0117x elapsed=0:03:38.46    \nframe=   79 fps=0.4 q=29.3 size=    3584KiB time=00:00:02.56 bitrate=11439.1kbits/s speed=0.0117x elapsed=0:03:39.03    \nframe=   79 fps=0.4 q=29.3 size=    3584KiB time=00:00:02.56 bitrate=11439.1kbits/s speed=0.0117x elapsed=0:03:39.58    \nframe=   79 fps=0.4 q=29.3 size=    3584KiB time=00:00:02.56 bitrate=11439.1kbits/s speed=0.0117x elapsed=0:03:40.13    \nframe=   79 fps=0.4 q=29.3 size=    3584KiB time=00:00:02.56 bitrate=11439.1kbits/s speed=0.0116x elapsed=0:03:40.72    \nframe=   79 fps=0.4 q=29.3 size=    3584KiB time=00:00:02.56 bitrate=11439.1kbits/s speed=0.0116x elapsed=0:03:41.27    \nframe=   79 fps=0.4 q=29.3 size=    3584KiB time=00:00:02.56 bitrate=11439.1kbits/s speed=0.0116x elapsed=0:03:41.78    \nframe=   80 fps=0.4 q=29.1 size=    3584KiB time=00:00:02.60 bitrate=11292.5kbits/s speed=0.0117x elapsed=0:03:42.31    \nframe=   80 fps=0.4 q=29.1 size=    3584KiB time=00:00:02.60 bitrate=11292.5kbits/s speed=0.0117x elapsed=0:03:42.86    \nframe=   80 fps=0.4 q=29.1 size=    3584KiB time=00:00:02.60 bitrate=11292.5kbits/s speed=0.0116x elapsed=0:03:43.39    \nframe=   80 fps=0.4 q=29.1 size=    3584KiB time=00:00:02.60 bitrate=11292.5kbits/s speed=0.0116x elapsed=0:03:43.93    \nframe=   80 fps=0.4 q=29.1 size=    3584KiB time=00:00:02.60 bitrate=11292.5kbits/s speed=0.0116x elapsed=0:03:44.44    \nframe=   80 fps=0.4 q=29.1 size=    3584KiB time=00:00:02.60 bitrate=11292.5kbits/s speed=0.0116x elapsed=0:03:44.98    \nframe=   80 fps=0.4 q=29.1 size=    3584KiB time=00:00:02.60 bitrate=11292.5kbits/s speed=0.0115x elapsed=0:03:45.50    \nframe=   81 fps=0.4 q=23.2 size=    3584KiB time=00:00:02.63 bitrate=11149.6kbits/s speed=0.0117x elapsed=0:03:46.03    \nframe=   82 fps=0.4 q=26.3 size=    3840KiB time=00:00:02.66 bitrate=11796.6kbits/s speed=0.0118x elapsed=0:03:46.55    \nframe=   82 fps=0.4 q=26.3 size=    3840KiB time=00:00:02.66 bitrate=11796.6kbits/s speed=0.0117x elapsed=0:03:47.06    \nframe=   82 fps=0.4 q=26.3 size=    3840KiB time=00:00:02.66 bitrate=11796.6kbits/s speed=0.0117x elapsed=0:03:47.57    \nframe=   82 fps=0.4 q=26.3 size=    3840KiB time=00:00:02.66 bitrate=11796.6kbits/s speed=0.0117x elapsed=0:03:48.09    \nframe=   83 fps=0.4 q=29.2 size=    3840KiB time=00:00:02.70 bitrate=11651.0kbits/s speed=0.0118x elapsed=0:03:48.60    \nframe=   84 fps=0.4 q=29.3 size=    3840KiB time=00:00:02.73 bitrate=11508.9kbits/s speed=0.0119x elapsed=0:03:49.12    \nframe=   84 fps=0.4 q=29.3 size=    3840KiB time=00:00:02.73 bitrate=11508.9kbits/s speed=0.0119x elapsed=0:03:49.64    \nframe=   84 fps=0.4 q=29.3 size=    3840KiB time=00:00:02.73 bitrate=11508.9kbits/s speed=0.0119x elapsed=0:03:50.15    \nframe=   85 fps=0.4 q=23.3 size=    3840KiB time=00:00:02.76 bitrate=11370.2kbits/s speed=0.012x elapsed=0:03:50.67    \nframe=   86 fps=0.4 q=27.6 size=    4096KiB time=00:00:02.80 bitrate=11983.9kbits/s speed=0.0121x elapsed=0:03:51.19    \nframe=   86 fps=0.4 q=27.6 size=    4096KiB time=00:00:02.80 bitrate=11983.9kbits/s speed=0.0121x elapsed=0:03:51.70    \nframe=   87 fps=0.4 q=29.3 size=    4096KiB time=00:00:02.83 bitrate=11842.9kbits/s speed=0.0122x elapsed=0:03:52.22    \nframe=   87 fps=0.4 q=29.3 size=    4096KiB time=00:00:02.83 bitrate=11842.9kbits/s speed=0.0122x elapsed=0:03:52.74    \nframe=   87 fps=0.4 q=29.3 size=    4096KiB time=00:00:02.83 bitrate=11842.9kbits/s speed=0.0121x elapsed=0:03:53.26    \nframe=   88 fps=0.4 q=29.3 size=    4096KiB time=00:00:02.86 bitrate=11705.2kbits/s speed=0.0123x elapsed=0:03:53.79    \nframe=   89 fps=0.4 q=29.1 size=    4096KiB time=00:00:02.90 bitrate=11570.6kbits/s speed=0.0124x elapsed=0:03:54.29    \nframe=   89 fps=0.4 q=29.1 size=    4096KiB time=00:00:02.90 bitrate=11570.6kbits/s speed=0.0123x elapsed=0:03:54.81    \nframe=   90 fps=0.4 q=23.0 size=    4096KiB time=00:00:02.93 bitrate=11439.1kbits/s speed=0.0125x elapsed=0:03:55.32    \nframe=   90 fps=0.4 q=23.0 size=    4096KiB time=00:00:02.93 bitrate=11439.1kbits/s speed=0.0124x elapsed=0:03:55.84    \nframe=   91 fps=0.4 q=27.3 size=    4096KiB time=00:00:02.96 bitrate=11310.6kbits/s speed=0.0126x elapsed=0:03:56.36    \nframe=   92 fps=0.4 q=29.2 size=    4352KiB time=00:00:03.00 bitrate=11884.0kbits/s speed=0.0127x elapsed=0:03:56.87    \nframe=   92 fps=0.4 q=29.2 size=    4352KiB time=00:00:03.00 bitrate=11884.0kbits/s speed=0.0126x elapsed=0:03:57.39    \nframe=   92 fps=0.4 q=29.2 size=    4352KiB time=00:00:03.00 bitrate=11884.0kbits/s speed=0.0126x elapsed=0:03:57.91    \nframe=   93 fps=0.4 q=28.6 size=    4352KiB time=00:00:03.03 bitrate=11753.4kbits/s speed=0.0127x elapsed=0:03:58.42    \nframe=   94 fps=0.4 q=28.8 size=    4352KiB time=00:00:03.06 bitrate=11625.6kbits/s speed=0.0128x elapsed=0:03:58.94    \nframe=   94 fps=0.4 q=28.8 size=    4352KiB time=00:00:03.06 bitrate=11625.6kbits/s speed=0.0128x elapsed=0:03:59.45    \nframe=   95 fps=0.4 q=22.9 size=    4352KiB time=00:00:03.10 bitrate=11500.6kbits/s speed=0.0129x elapsed=0:03:59.97    \nframe=   96 fps=0.4 q=25.8 size=    4352KiB time=00:00:03.13 bitrate=11378.3kbits/s speed=0.013x elapsed=0:04:00.49    \nframe=   96 fps=0.4 q=25.8 size=    4352KiB time=00:00:03.13 bitrate=11378.3kbits/s speed=0.013x elapsed=0:04:01.01    \nframe=   96 fps=0.4 q=25.8 size=    4352KiB time=00:00:03.13 bitrate=11378.3kbits/s speed=0.013x elapsed=0:04:01.53    \nframe=   97 fps=0.4 q=28.1 size=    4352KiB time=00:00:03.16 bitrate=11258.5kbits/s speed=0.0131x elapsed=0:04:02.04    \nframe=   97 fps=0.4 q=28.1 size=    4352KiB time=00:00:03.16 bitrate=11258.5kbits/s speed=0.0131x elapsed=0:04:02.56    \nframe=   98 fps=0.4 q=28.2 size=    4352KiB time=00:00:03.20 bitrate=11141.2kbits/s speed=0.0132x elapsed=0:04:03.08    \nframe=   99 fps=0.4 q=22.9 size=    4352KiB time=00:00:03.23 bitrate=11026.4kbits/s speed=0.0133x elapsed=0:04:03.59    \nframe=   99 fps=0.4 q=22.9 size=    4352KiB time=00:00:03.23 bitrate=11026.4kbits/s speed=0.0132x elapsed=0:04:04.11    \nframe=  100 fps=0.4 q=25.8 size=    4608KiB time=00:00:03.26 bitrate=11555.8kbits/s speed=0.0134x elapsed=0:04:04.63    \nframe=  100 fps=0.4 q=25.8 size=    4608KiB time=00:00:03.26 bitrate=11555.8kbits/s speed=0.0133x elapsed=0:04:05.14    \nframe=  101 fps=0.4 q=28.7 size=    4608KiB time=00:00:03.30 bitrate=11439.1kbits/s speed=0.0134x elapsed=0:04:05.66    \nframe=  101 fps=0.4 q=28.7 size=    4608KiB time=00:00:03.30 bitrate=11439.1kbits/s speed=0.0134x elapsed=0:04:06.16    \nframe=  102 fps=0.4 q=28.4 size=    4608KiB time=00:00:03.33 bitrate=11324.7kbits/s speed=0.0135x elapsed=0:04:06.69    \nframe=  102 fps=0.4 q=28.4 size=    4608KiB time=00:00:03.33 bitrate=11324.7kbits/s speed=0.0135x elapsed=0:04:07.21    \nframe=  103 fps=0.4 q=23.1 size=    4608KiB time=00:00:03.36 bitrate=11212.6kbits/s speed=0.0136x elapsed=0:04:07.72    \nframe=  104 fps=0.4 q=26.0 size=    4864KiB time=00:00:03.40 bitrate=11719.5kbits/s speed=0.0137x elapsed=0:04:08.23    \nframe=  105 fps=0.4 q=28.6 size=    4864KiB time=00:00:03.43 bitrate=11605.7kbits/s speed=0.0138x elapsed=0:04:08.75    \nframe=  105 fps=0.4 q=28.6 size=    4864KiB time=00:00:03.43 bitrate=11605.7kbits/s speed=0.0138x elapsed=0:04:09.26    \nframe=  106 fps=0.4 q=28.8 size=    4864KiB time=00:00:03.46 bitrate=11494.1kbits/s speed=0.0139x elapsed=0:04:09.79    \nframe=  106 fps=0.4 q=28.8 size=    4864KiB time=00:00:03.46 bitrate=11494.1kbits/s speed=0.0138x elapsed=0:04:10.30    \nframe=  106 fps=0.4 q=28.8 size=    4864KiB time=00:00:03.46 bitrate=11494.1kbits/s speed=0.0138x elapsed=0:04:10.83    \nframe=  106 fps=0.4 q=28.8 size=    4864KiB time=00:00:03.46 bitrate=11494.1kbits/s speed=0.0138x elapsed=0:04:11.35    \nframe=  107 fps=0.4 q=23.3 size=    4864KiB time=00:00:03.50 bitrate=11384.6kbits/s speed=0.0139x elapsed=0:04:11.89    \nframe=  107 fps=0.4 q=23.3 size=    4864KiB time=00:00:03.50 bitrate=11384.6kbits/s speed=0.0139x elapsed=0:04:12.42    \nframe=  107 fps=0.4 q=23.3 size=    4864KiB time=00:00:03.50 bitrate=11384.6kbits/s speed=0.0138x elapsed=0:04:12.94    \nframe=  108 fps=0.4 q=26.0 size=    4864KiB time=00:00:03.53 bitrate=11277.2kbits/s speed=0.0139x elapsed=0:04:13.49    \nframe=  108 fps=0.4 q=26.0 size=    4864KiB time=00:00:03.53 bitrate=11277.2kbits/s speed=0.0139x elapsed=0:04:14.01    \nframe=  108 fps=0.4 q=26.0 size=    4864KiB time=00:00:03.53 bitrate=11277.2kbits/s speed=0.0139x elapsed=0:04:14.55    \nframe=  108 fps=0.4 q=26.0 size=    4864KiB time=00:00:03.53 bitrate=11277.2kbits/s speed=0.0139x elapsed=0:04:15.08    \nframe=  108 fps=0.4 q=26.0 size=    4864KiB time=00:00:03.53 bitrate=11277.2kbits/s speed=0.0138x elapsed=0:04:15.60    \nframe=  108 fps=0.4 q=26.0 size=    4864KiB time=00:00:03.53 bitrate=11277.2kbits/s speed=0.0138x elapsed=0:04:16.13    \nframe=  108 fps=0.4 q=26.0 size=    4864KiB time=00:00:03.53 bitrate=11277.2kbits/s speed=0.0138x elapsed=0:04:16.67    \nframe=  108 fps=0.4 q=26.0 size=    4864KiB time=00:00:03.53 bitrate=11277.2kbits/s speed=0.0137x elapsed=0:04:17.19    \nframe=  108 fps=0.4 q=26.0 size=    4864KiB time=00:00:03.53 bitrate=11277.2kbits/s speed=0.0137x elapsed=0:04:17.72    \nframe=  108 fps=0.4 q=26.0 size=    4864KiB time=00:00:03.53 bitrate=11277.2kbits/s speed=0.0137x elapsed=0:04:18.23    \nframe=  109 fps=0.4 q=29.0 size=    5120KiB time=00:00:03.56 bitrate=11759.8kbits/s speed=0.0138x elapsed=0:04:18.77    \nframe=  109 fps=0.4 q=29.0 size=    5120KiB time=00:00:03.56 bitrate=11759.8kbits/s speed=0.0138x elapsed=0:04:19.30    \nframe=  109 fps=0.4 q=29.0 size=    5120KiB time=00:00:03.56 bitrate=11759.8kbits/s speed=0.0137x elapsed=0:04:19.85    \nframe=  109 fps=0.4 q=29.0 size=    5120KiB time=00:00:03.56 bitrate=11759.8kbits/s speed=0.0137x elapsed=0:04:20.35    \nframe=  109 fps=0.4 q=29.0 size=    5120KiB time=00:00:03.56 bitrate=11759.8kbits/s speed=0.0137x elapsed=0:04:20.88    \nframe=  110 fps=0.4 q=28.6 size=    5120KiB time=00:00:03.60 bitrate=11650.9kbits/s speed=0.0138x elapsed=0:04:21.40    \nframe=  110 fps=0.4 q=28.6 size=    5120KiB time=00:00:03.60 bitrate=11650.9kbits/s speed=0.0137x elapsed=0:04:21.92    \nframe=  111 fps=0.4 q=23.2 size=    5120KiB time=00:00:03.63 bitrate=11544.1kbits/s speed=0.0138x elapsed=0:04:22.44    \nframe=  111 fps=0.4 q=23.2 size=    5120KiB time=00:00:03.63 bitrate=11544.1kbits/s speed=0.0138x elapsed=0:04:22.97    \nframe=  111 fps=0.4 q=23.2 size=    5120KiB time=00:00:03.63 bitrate=11544.1kbits/s speed=0.0138x elapsed=0:04:23.50    \nframe=  111 fps=0.4 q=23.2 size=    5120KiB time=00:00:03.63 bitrate=11544.1kbits/s speed=0.0138x elapsed=0:04:24.03    \nframe=  111 fps=0.4 q=23.2 size=    5120KiB time=00:00:03.63 bitrate=11544.1kbits/s speed=0.0137x elapsed=0:04:24.56    \nframe=  112 fps=0.4 q=25.7 size=    5120KiB time=00:00:03.66 bitrate=11439.1kbits/s speed=0.0138x elapsed=0:04:25.09    \nframe=  112 fps=0.4 q=25.7 size=    5120KiB time=00:00:03.66 bitrate=11439.1kbits/s speed=0.0138x elapsed=0:04:25.63    \nframe=  112 fps=0.4 q=25.7 size=    5120KiB time=00:00:03.66 bitrate=11439.1kbits/s speed=0.0138x elapsed=0:04:26.18    \nframe=  112 fps=0.4 q=25.7 size=    5120KiB time=00:00:03.66 bitrate=11439.1kbits/s speed=0.0137x elapsed=0:04:26.69    \nframe=  112 fps=0.4 q=25.7 size=    5120KiB time=00:00:03.66 bitrate=11439.1kbits/s speed=0.0137x elapsed=0:04:27.21    \nframe=  112 fps=0.4 q=25.7 size=    5120KiB time=00:00:03.66 bitrate=11439.1kbits/s speed=0.0137x elapsed=0:04:27.74    \nframe=  112 fps=0.4 q=25.7 size=    5120KiB time=00:00:03.66 bitrate=11439.1kbits/s speed=0.0137x elapsed=0:04:28.26    \nframe=  112 fps=0.4 q=25.7 size=    5120KiB time=00:00:03.66 bitrate=11439.1kbits/s speed=0.0136x elapsed=0:04:28.78    \nframe=  112 fps=0.4 q=25.7 size=    5120KiB time=00:00:03.66 bitrate=11439.1kbits/s speed=0.0136x elapsed=0:04:29.30    \nframe=  113 fps=0.4 q=28.5 size=    5120KiB time=00:00:03.70 bitrate=11336.1kbits/s speed=0.0137x elapsed=0:04:29.86    \nframe=  113 fps=0.4 q=28.5 size=    5120KiB time=00:00:03.70 bitrate=11336.1kbits/s speed=0.0137x elapsed=0:04:30.40    \nframe=  113 fps=0.4 q=28.5 size=    5120KiB time=00:00:03.70 bitrate=11336.1kbits/s speed=0.0137x elapsed=0:04:30.92    \nframe=  114 fps=0.4 q=28.2 size=    5120KiB time=00:00:03.73 bitrate=11234.8kbits/s speed=0.0138x elapsed=0:04:31.45    \nframe=  114 fps=0.4 q=28.2 size=    5120KiB time=00:00:03.73 bitrate=11234.8kbits/s speed=0.0137x elapsed=0:04:32.00    \nframe=  114 fps=0.4 q=28.2 size=    5120KiB time=00:00:03.73 bitrate=11234.8kbits/s speed=0.0137x elapsed=0:04:32.55    \nframe=  114 fps=0.4 q=28.2 size=    5120KiB time=00:00:03.73 bitrate=11234.8kbits/s speed=0.0137x elapsed=0:04:33.07    \nframe=  115 fps=0.4 q=23.2 size=    5120KiB time=00:00:03.76 bitrate=11135.4kbits/s speed=0.0138x elapsed=0:04:33.60    \nframe=  115 fps=0.4 q=23.2 size=    5120KiB time=00:00:03.76 bitrate=11135.4kbits/s speed=0.0137x elapsed=0:04:34.14    \nframe=  115 fps=0.4 q=23.2 size=    5120KiB time=00:00:03.76 bitrate=11135.4kbits/s speed=0.0137x elapsed=0:04:34.68    \nframe=  115 fps=0.4 q=23.2 size=    5120KiB time=00:00:03.76 bitrate=11135.4kbits/s speed=0.0137x elapsed=0:04:35.20    \nframe=  115 fps=0.4 q=23.2 size=    5120KiB time=00:00:03.76 bitrate=11135.4kbits/s speed=0.0137x elapsed=0:04:35.72    \nframe=  115 fps=0.4 q=23.2 size=    5120KiB time=00:00:03.76 bitrate=11135.4kbits/s speed=0.0136x elapsed=0:04:36.23    \nframe=  115 fps=0.4 q=23.2 size=    5120KiB time=00:00:03.76 bitrate=11135.4kbits/s speed=0.0136x elapsed=0:04:36.76    \nframe=  116 fps=0.4 q=25.9 size=    5376KiB time=00:00:03.80 bitrate=11589.6kbits/s speed=0.0137x elapsed=0:04:37.29    \nframe=  116 fps=0.4 q=25.9 size=    5376KiB time=00:00:03.80 bitrate=11589.6kbits/s speed=0.0137x elapsed=0:04:37.81    \nframe=  116 fps=0.4 q=25.9 size=    5376KiB time=00:00:03.80 bitrate=11589.6kbits/s speed=0.0137x elapsed=0:04:38.34    \nframe=  116 fps=0.4 q=25.9 size=    5376KiB time=00:00:03.80 bitrate=11589.6kbits/s speed=0.0136x elapsed=0:04:38.88    \nframe=  116 fps=0.4 q=25.9 size=    5376KiB time=00:00:03.80 bitrate=11589.6kbits/s speed=0.0136x elapsed=0:04:39.40    \nframe=  116 fps=0.4 q=25.9 size=    5376KiB time=00:00:03.80 bitrate=11589.6kbits/s speed=0.0136x elapsed=0:04:39.93    \nframe=  116 fps=0.4 q=25.9 size=    5376KiB time=00:00:03.80 bitrate=11589.6kbits/s speed=0.0135x elapsed=0:04:40.45    \nframe=  116 fps=0.4 q=25.9 size=    5376KiB time=00:00:03.80 bitrate=11589.6kbits/s speed=0.0135x elapsed=0:04:40.97    \nframe=  117 fps=0.4 q=28.8 size=    5376KiB time=00:00:03.83 bitrate=11488.8kbits/s speed=0.0136x elapsed=0:04:41.48    \nframe=  117 fps=0.4 q=28.8 size=    5376KiB time=00:00:03.83 bitrate=11488.8kbits/s speed=0.0136x elapsed=0:04:42.01    \nframe=  117 fps=0.4 q=28.8 size=    5376KiB time=00:00:03.83 bitrate=11488.8kbits/s speed=0.0136x elapsed=0:04:42.54    \nframe=  118 fps=0.4 q=28.4 size=    5376KiB time=00:00:03.86 bitrate=11389.8kbits/s speed=0.0137x elapsed=0:04:43.06    \nframe=  118 fps=0.4 q=28.4 size=    5376KiB time=00:00:03.86 bitrate=11389.8kbits/s speed=0.0136x elapsed=0:04:43.59    \nframe=  118 fps=0.4 q=28.4 size=    5376KiB time=00:00:03.86 bitrate=11389.8kbits/s speed=0.0136x elapsed=0:04:44.11    \nframe=  119 fps=0.4 q=23.1 size=    5376KiB time=00:00:03.90 bitrate=11292.4kbits/s speed=0.0137x elapsed=0:04:44.63    \nframe=  119 fps=0.4 q=23.1 size=    5376KiB time=00:00:03.90 bitrate=11292.4kbits/s speed=0.0137x elapsed=0:04:45.19    \nframe=  119 fps=0.4 q=23.1 size=    5376KiB time=00:00:03.90 bitrate=11292.4kbits/s speed=0.0137x elapsed=0:04:45.70    \nframe=  119 fps=0.4 q=23.1 size=    5376KiB time=00:00:03.90 bitrate=11292.4kbits/s speed=0.0136x elapsed=0:04:46.22    \nframe=  120 fps=0.4 q=25.8 size=    5632KiB time=00:00:03.93 bitrate=11729.9kbits/s speed=0.0137x elapsed=0:04:46.76    \nframe=  120 fps=0.4 q=25.8 size=    5632KiB time=00:00:03.93 bitrate=11729.9kbits/s speed=0.0137x elapsed=0:04:47.28    \nframe=  120 fps=0.4 q=25.8 size=    5632KiB time=00:00:03.93 bitrate=11729.9kbits/s speed=0.0137x elapsed=0:04:47.79    \nframe=  120 fps=0.4 q=25.8 size=    5632KiB time=00:00:03.93 bitrate=11729.9kbits/s speed=0.0136x elapsed=0:04:48.31    \nframe=  120 fps=0.4 q=25.8 size=    5632KiB time=00:00:03.93 bitrate=11729.9kbits/s speed=0.0136x elapsed=0:04:48.83    \nframe=  120 fps=0.4 q=25.8 size=    5632KiB time=00:00:03.93 bitrate=11729.9kbits/s speed=0.0136x elapsed=0:04:49.34    \nframe=  121 fps=0.4 q=28.6 size=    5632KiB time=00:00:03.96 bitrate=11631.4kbits/s speed=0.0137x elapsed=0:04:49.86    \nframe=  121 fps=0.4 q=28.6 size=    5632KiB time=00:00:03.96 bitrate=11631.4kbits/s speed=0.0137x elapsed=0:04:50.37    \nframe=  122 fps=0.4 q=28.4 size=    5632KiB time=00:00:04.00 bitrate=11534.4kbits/s speed=0.0138x elapsed=0:04:50.89    \nframe=  122 fps=0.4 q=28.4 size=    5632KiB time=00:00:04.00 bitrate=11534.4kbits/s speed=0.0137x elapsed=0:04:51.41    \nframe=  122 fps=0.4 q=28.4 size=    5632KiB time=00:00:04.00 bitrate=11534.4kbits/s speed=0.0137x elapsed=0:04:51.98    \nframe=  122 fps=0.4 q=28.4 size=    5632KiB time=00:00:04.00 bitrate=11534.4kbits/s speed=0.0137x elapsed=0:04:52.53    \nframe=  123 fps=0.4 q=23.2 size=    5632KiB time=00:00:04.03 bitrate=11439.1kbits/s speed=0.0138x elapsed=0:04:53.05    \nframe=  123 fps=0.4 q=23.2 size=    5632KiB time=00:00:04.03 bitrate=11439.1kbits/s speed=0.0137x elapsed=0:04:53.58    \nframe=  123 fps=0.4 q=23.2 size=    5632KiB time=00:00:04.03 bitrate=11439.1kbits/s speed=0.0137x elapsed=0:04:54.13    \nframe=  123 fps=0.4 q=23.2 size=    5632KiB time=00:00:04.03 bitrate=11439.1kbits/s speed=0.0137x elapsed=0:04:54.63    \nframe=  123 fps=0.4 q=23.2 size=    5632KiB time=00:00:04.03 bitrate=11439.1kbits/s speed=0.0137x elapsed=0:04:55.16    \nframe=  123 fps=0.4 q=23.2 size=    5632KiB time=00:00:04.03 bitrate=11439.1kbits/s speed=0.0136x elapsed=0:04:55.66    \nframe=  123 fps=0.4 q=23.2 size=    5632KiB time=00:00:04.03 bitrate=11439.1kbits/s speed=0.0136x elapsed=0:04:56.23    \nframe=  124 fps=0.4 q=25.4 size=    5632KiB time=00:00:04.06 bitrate=11345.3kbits/s speed=0.0137x elapsed=0:04:56.79    \nframe=  124 fps=0.4 q=25.4 size=    5632KiB time=00:00:04.06 bitrate=11345.3kbits/s speed=0.0137x elapsed=0:04:57.33    \nframe=  124 fps=0.4 q=25.4 size=    5632KiB time=00:00:04.06 bitrate=11345.3kbits/s speed=0.0137x elapsed=0:04:57.86    \nframe=  125 fps=0.4 q=28.3 size=    5888KiB time=00:00:04.10 bitrate=11764.6kbits/s speed=0.0137x elapsed=0:04:58.39    \nframe=  125 fps=0.4 q=28.3 size=    5888KiB time=00:00:04.10 bitrate=11764.6kbits/s speed=0.0137x elapsed=0:04:58.92    \nframe=  125 fps=0.4 q=28.3 size=    5888KiB time=00:00:04.10 bitrate=11764.6kbits/s speed=0.0137x elapsed=0:04:59.46    \nframe=  125 fps=0.4 q=28.3 size=    5888KiB time=00:00:04.10 bitrate=11764.6kbits/s speed=0.0137x elapsed=0:05:00.00    \nframe=  125 fps=0.4 q=28.3 size=    5888KiB time=00:00:04.10 bitrate=11764.6kbits/s speed=0.0136x elapsed=0:05:00.52    \nframe=  125 fps=0.4 q=28.3 size=    5888KiB time=00:00:04.10 bitrate=11764.6kbits/s speed=0.0136x elapsed=0:05:01.06    \nframe=  125 fps=0.4 q=28.3 size=    5888KiB time=00:00:04.10 bitrate=11764.6kbits/s speed=0.0136x elapsed=0:05:01.61    \nframe=  126 fps=0.4 q=28.1 size=    5888KiB time=00:00:04.13 bitrate=11669.7kbits/s speed=0.0137x elapsed=0:05:02.13    \nframe=  126 fps=0.4 q=28.1 size=    5888KiB time=00:00:04.13 bitrate=11669.7kbits/s speed=0.0137x elapsed=0:05:02.66    \nframe=  126 fps=0.4 q=28.1 size=    5888KiB time=00:00:04.13 bitrate=11669.7kbits/s speed=0.0136x elapsed=0:05:03.18    \nframe=  126 fps=0.4 q=28.1 size=    5888KiB time=00:00:04.13 bitrate=11669.7kbits/s speed=0.0136x elapsed=0:05:03.69    \nframe=  127 fps=0.4 q=23.0 size=    5888KiB time=00:00:04.16 bitrate=11576.4kbits/s speed=0.0137x elapsed=0:05:04.21    \nframe=  127 fps=0.4 q=23.0 size=    5888KiB time=00:00:04.16 bitrate=11576.4kbits/s speed=0.0137x elapsed=0:05:04.73    \nframe=  127 fps=0.4 q=23.0 size=    5888KiB time=00:00:04.16 bitrate=11576.4kbits/s speed=0.0136x elapsed=0:05:05.26    \nframe=  127 fps=0.4 q=23.0 size=    5888KiB time=00:00:04.16 bitrate=11576.4kbits/s speed=0.0136x elapsed=0:05:05.79    \nframe=  127 fps=0.4 q=23.0 size=    5888KiB time=00:00:04.16 bitrate=11576.4kbits/s speed=0.0136x elapsed=0:05:06.31    \nframe=  128 fps=0.4 q=25.5 size=    5888KiB time=00:00:04.20 bitrate=11484.5kbits/s speed=0.0137x elapsed=0:05:06.84    \nframe=  128 fps=0.4 q=25.5 size=    5888KiB time=00:00:04.20 bitrate=11484.5kbits/s speed=0.0137x elapsed=0:05:07.35    \nframe=  128 fps=0.4 q=25.5 size=    5888KiB time=00:00:04.20 bitrate=11484.5kbits/s speed=0.0136x elapsed=0:05:07.87    \nframe=  128 fps=0.4 q=25.5 size=    5888KiB time=00:00:04.20 bitrate=11484.5kbits/s speed=0.0136x elapsed=0:05:08.42    \nframe=  128 fps=0.4 q=25.5 size=    5888KiB time=00:00:04.20 bitrate=11484.5kbits/s speed=0.0136x elapsed=0:05:08.95    \nframe=  128 fps=0.4 q=25.5 size=    5888KiB time=00:00:04.20 bitrate=11484.5kbits/s speed=0.0136x elapsed=0:05:09.48    \nframe=  128 fps=0.4 q=25.5 size=    5888KiB time=00:00:04.20 bitrate=11484.5kbits/s speed=0.0135x elapsed=0:05:10.03    \nframe=  129 fps=0.4 q=28.2 size=    5888KiB time=00:00:04.23 bitrate=11394.1kbits/s speed=0.0136x elapsed=0:05:10.55    \nframe=  129 fps=0.4 q=28.2 size=    5888KiB time=00:00:04.23 bitrate=11394.1kbits/s speed=0.0136x elapsed=0:05:11.08    \nframe=  129 fps=0.4 q=28.2 size=    5888KiB time=00:00:04.23 bitrate=11394.1kbits/s speed=0.0136x elapsed=0:05:11.61    \nframe=  129 fps=0.4 q=28.2 size=    5888KiB time=00:00:04.23 bitrate=11394.1kbits/s speed=0.0136x elapsed=0:05:12.16    \nframe=  129 fps=0.4 q=28.2 size=    5888KiB time=00:00:04.23 bitrate=11394.1kbits/s speed=0.0135x elapsed=0:05:12.67    \nframe=  130 fps=0.4 q=28.2 size=    5888KiB time=00:00:04.26 bitrate=11305.0kbits/s speed=0.0136x elapsed=0:05:13.20    \nframe=  130 fps=0.4 q=28.2 size=    5888KiB time=00:00:04.26 bitrate=11305.0kbits/s speed=0.0136x elapsed=0:05:13.72    \nframe=  130 fps=0.4 q=28.2 size=    5888KiB time=00:00:04.26 bitrate=11305.0kbits/s speed=0.0136x elapsed=0:05:14.26    \nframe=  130 fps=0.4 q=28.2 size=    5888KiB time=00:00:04.26 bitrate=11305.0kbits/s speed=0.0136x elapsed=0:05:14.79    \nframe=  131 fps=0.4 q=22.8 size=    5888KiB time=00:00:04.30 bitrate=11217.4kbits/s speed=0.0136x elapsed=0:05:15.31    \nframe=  131 fps=0.4 q=22.8 size=    5888KiB time=00:00:04.30 bitrate=11217.4kbits/s speed=0.0136x elapsed=0:05:15.86    \nframe=  132 fps=0.4 q=25.3 size=    6144KiB time=00:00:04.33 bitrate=11615.1kbits/s speed=0.0137x elapsed=0:05:16.39    \nframe=  132 fps=0.4 q=25.3 size=    6144KiB time=00:00:04.33 bitrate=11615.1kbits/s speed=0.0137x elapsed=0:05:16.91    \nframe=  132 fps=0.4 q=25.3 size=    6144KiB time=00:00:04.33 bitrate=11615.1kbits/s speed=0.0137x elapsed=0:05:17.43    \nframe=  132 fps=0.4 q=25.3 size=    6144KiB time=00:00:04.33 bitrate=11615.1kbits/s speed=0.0136x elapsed=0:05:17.99    \nframe=  132 fps=0.4 q=25.3 size=    6144KiB time=00:00:04.33 bitrate=11615.1kbits/s speed=0.0136x elapsed=0:05:18.50    \nframe=  133 fps=0.4 q=28.2 size=    6144KiB time=00:00:04.36 bitrate=11526.4kbits/s speed=0.0137x elapsed=0:05:19.02    \nframe=  133 fps=0.4 q=28.2 size=    6144KiB time=00:00:04.36 bitrate=11526.4kbits/s speed=0.0137x elapsed=0:05:19.56    \nframe=  133 fps=0.4 q=28.2 size=    6144KiB time=00:00:04.36 bitrate=11526.4kbits/s speed=0.0136x elapsed=0:05:20.07    \nframe=  133 fps=0.4 q=28.2 size=    6144KiB time=00:00:04.36 bitrate=11526.4kbits/s speed=0.0136x elapsed=0:05:20.59    \nframe=  133 fps=0.4 q=28.2 size=    6144KiB time=00:00:04.36 bitrate=11526.4kbits/s speed=0.0136x elapsed=0:05:21.13    \nframe=  133 fps=0.4 q=28.2 size=    6144KiB time=00:00:04.36 bitrate=11526.4kbits/s speed=0.0136x elapsed=0:05:21.69    \nframe=  134 fps=0.4 q=27.8 size=    6144KiB time=00:00:04.40 bitrate=11439.1kbits/s speed=0.0137x elapsed=0:05:22.22    \nframe=  134 fps=0.4 q=27.8 size=    6144KiB time=00:00:04.40 bitrate=11439.1kbits/s speed=0.0136x elapsed=0:05:22.74    \nframe=  134 fps=0.4 q=27.8 size=    6144KiB time=00:00:04.40 bitrate=11439.1kbits/s speed=0.0136x elapsed=0:05:23.26    \nframe=  135 fps=0.4 q=22.9 size=    6144KiB time=00:00:04.43 bitrate=11353.1kbits/s speed=0.0137x elapsed=0:05:23.81    \nframe=  135 fps=0.4 q=22.9 size=    6144KiB time=00:00:04.43 bitrate=11353.1kbits/s speed=0.0137x elapsed=0:05:24.35    \nframe=  135 fps=0.4 q=22.9 size=    6144KiB time=00:00:04.43 bitrate=11353.1kbits/s speed=0.0136x elapsed=0:05:24.88    \nframe=  136 fps=0.4 q=25.0 size=    6400KiB time=00:00:04.46 bitrate=11737.9kbits/s speed=0.0137x elapsed=0:05:25.41    \nframe=  136 fps=0.4 q=25.0 size=    6400KiB time=00:00:04.46 bitrate=11737.9kbits/s speed=0.0137x elapsed=0:05:25.92    \nframe=  136 fps=0.4 q=25.0 size=    6400KiB time=00:00:04.46 bitrate=11737.9kbits/s speed=0.0137x elapsed=0:05:26.44    \nframe=  136 fps=0.4 q=25.0 size=    6400KiB time=00:00:04.46 bitrate=11737.9kbits/s speed=0.0137x elapsed=0:05:26.97    \nframe=  136 fps=0.4 q=25.0 size=    6400KiB time=00:00:04.46 bitrate=11737.9kbits/s speed=0.0136x elapsed=0:05:27.50    \nframe=  137 fps=0.4 q=27.8 size=    6400KiB time=00:00:04.50 bitrate=11650.9kbits/s speed=0.0137x elapsed=0:05:28.04    \nframe=  137 fps=0.4 q=27.8 size=    6400KiB time=00:00:04.50 bitrate=11650.9kbits/s speed=0.0137x elapsed=0:05:28.57    \nframe=  137 fps=0.4 q=27.8 size=    6400KiB time=00:00:04.50 bitrate=11650.9kbits/s speed=0.0137x elapsed=0:05:29.10    \nframe=  137 fps=0.4 q=27.8 size=    6400KiB time=00:00:04.50 bitrate=11650.9kbits/s speed=0.0137x elapsed=0:05:29.62    \nframe=  138 fps=0.4 q=27.9 size=    6400KiB time=00:00:04.53 bitrate=11565.3kbits/s speed=0.0137x elapsed=0:05:30.14    \nframe=  138 fps=0.4 q=27.9 size=    6400KiB time=00:00:04.53 bitrate=11565.3kbits/s speed=0.0137x elapsed=0:05:30.66    \nframe=  139 fps=0.4 q=23.1 size=    6400KiB time=00:00:04.56 bitrate=11480.8kbits/s speed=0.0138x elapsed=0:05:31.17    \nframe=  139 fps=0.4 q=23.1 size=    6400KiB time=00:00:04.56 bitrate=11480.8kbits/s speed=0.0138x elapsed=0:05:31.69    \nframe=  140 fps=0.4 q=24.9 size=    6400KiB time=00:00:04.60 bitrate=11397.6kbits/s speed=0.0138x elapsed=0:05:32.20    \nframe=  140 fps=0.4 q=24.9 size=    6400KiB time=00:00:04.60 bitrate=11397.6kbits/s speed=0.0138x elapsed=0:05:32.72    \nframe=  141 fps=0.4 q=27.6 size=    6656KiB time=00:00:04.63 bitrate=11768.3kbits/s speed=0.0139x elapsed=0:05:33.24    \nframe=  142 fps=0.4 q=27.8 size=    6656KiB time=00:00:04.66 bitrate=11684.2kbits/s speed=0.014x elapsed=0:05:33.76    \nframe=  142 fps=0.4 q=27.8 size=    6656KiB time=00:00:04.66 bitrate=11684.2kbits/s speed=0.014x elapsed=0:05:34.28    \nframe=  143 fps=0.4 q=23.1 size=    6656KiB time=00:00:04.70 bitrate=11601.3kbits/s speed=0.014x elapsed=0:05:34.79    \nframe=  143 fps=0.4 q=23.1 size=    6656KiB time=00:00:04.70 bitrate=11601.3kbits/s speed=0.014x elapsed=0:05:35.31    \nframe=  144 fps=0.4 q=24.3 size=    6656KiB time=00:00:04.73 bitrate=11519.6kbits/s speed=0.0141x elapsed=0:05:35.83    \nframe=  144 fps=0.4 q=24.3 size=    6656KiB time=00:00:04.73 bitrate=11519.6kbits/s speed=0.0141x elapsed=0:05:36.34    \nframe=  145 fps=0.4 q=27.0 size=    6656KiB time=00:00:04.76 bitrate=11439.1kbits/s speed=0.0141x elapsed=0:05:36.86    \nframe=  145 fps=0.4 q=27.0 size=    6656KiB time=00:00:04.76 bitrate=11439.1kbits/s speed=0.0141x elapsed=0:05:37.38    \nframe=  146 fps=0.4 q=27.3 size=    6912KiB time=00:00:04.80 bitrate=11796.6kbits/s speed=0.0142x elapsed=0:05:37.89    \nframe=  147 fps=0.4 q=23.6 size=    6912KiB time=00:00:04.83 bitrate=11715.2kbits/s speed=0.0143x elapsed=0:05:38.41    \nframe=  147 fps=0.4 q=23.6 size=    6912KiB time=00:00:04.83 bitrate=11715.2kbits/s speed=0.0143x elapsed=0:05:38.92    \nframe=  149 fps=0.4 q=25.8 size=    6912KiB time=00:00:04.90 bitrate=11555.8kbits/s speed=0.0144x elapsed=0:05:39.44    \n[mp4 @ 00000263bc511480] Starting second pass: moving the moov atom to the beginning of the file\n[out#0/mp4 @ 00000263bc50ab40] video:7178KiB audio:0KiB subtitle:0KiB other streams:0KiB global headers:2KiB muxing overhead: 0.073348%\nframe=  150 fps=0.4 q=24.6 Lsize=    7183KiB time=00:00:04.93 bitrate=11927.5kbits/s speed=0.0145x elapsed=0:05:39.58    \nx265 [info]: frame I:      1, Avg QP:20.82  kb/s: 63130.32\nx265 [info]: frame P:     37, Avg QP:23.63  kb/s: 33252.86\nx265 [info]: frame B:    112, Avg QP:28.36  kb/s: 4199.55 \nx265 [info]: Weighted P-Frames: Y:13.5% UV:13.5%\n\nencoded 150 frames in 338.01s (0.44 fps), 11758.91 kb/s, Avg QP:27.15\n",
  "seconds": 340.4509015083313,
  "probe_out": {}
}